<svg id="svg" version="1.1" xmlns="http://www.w3.org/2000/svg" xmlns:xlink="http://www.w3.org/1999/xlink" width="400" height="400" viewBox="0, 0, 400,400"><g id="svgg"><path id="path0" d="M195.186 68.033 C 195.187 68.198,196.114 68.818,197.248 69.410 C 203.265 72.554,207.066 78.641,208.949 88.148 C 209.463 90.739,209.608 103.882,209.143 105.648 L 208.875 106.667 174.674 106.667 L 140.473 106.667 140.944 103.796 C 143.121 90.518,151.028 76.384,159.001 71.516 C 160.952 70.325,160.514 70.184,157.150 70.917 C 127.794 77.313,97.544 90.247,63.471 110.971 C 61.000 112.474,58.803 113.704,58.589 113.704 C 57.558 113.704,54.432 134.948,53.301 149.630 C 52.780 156.403,52.724 176.576,53.225 177.077 C 53.438 177.290,54.199 177.199,55.211 176.840 C 82.047 167.329,120.741 160.582,131.389 163.557 L 132.222 163.790 132.225 158.284 C 132.227 155.256,132.334 151.903,132.462 150.833 L 132.696 148.889 172.089 148.889 L 211.481 148.889 211.490 140.463 C 211.499 130.985,211.751 129.804,214.124 128.112 L 215.370 127.222 237.488 127.121 L 259.607 127.020 258.102 122.677 C 250.484 100.695,234.961 82.094,217.485 74.006 C 210.490 70.768,195.182 66.668,195.186 68.033 M252.222 198.001 C 246.686 200.412,227.213 205.486,219.630 206.494 C 208.262 208.005,203.749 208.503,197.778 208.905 C 190.091 209.423,190.852 208.986,192.245 212.076 C 197.788 224.381,199.815 236.039,199.815 255.628 L 199.815 268.479 201.481 268.284 C 204.604 267.918,213.504 266.235,219.815 264.817 C 223.278 264.039,228.111 262.953,230.556 262.405 C 234.965 261.415,252.381 256.666,252.938 256.301 C 253.484 255.943,254.338 197.394,253.796 197.422 C 253.644 197.430,252.935 197.690,252.222 198.001 " stroke="none" fill="#fbbb04" fill-rule="evenodd"></path><path id="path1" d="M170.370 10.622 C 150.910 12.621,131.372 18.593,118.519 26.472 C 116.583 27.659,114.417 28.970,113.704 29.386 C 112.991 29.802,110.864 31.319,108.978 32.756 C 107.091 34.194,105.056 35.725,104.455 36.157 C 102.571 37.513,94.655 45.222,91.614 48.662 C 76.128 66.179,65.724 85.822,59.275 109.722 C 57.992 114.477,57.801 114.420,63.471 110.971 C 89.854 94.924,115.721 82.783,138.704 75.661 C 143.872 74.059,157.416 70.718,159.411 70.552 C 160.244 70.483,162.176 69.833,163.704 69.108 C 171.637 65.342,185.021 64.474,192.593 67.235 C 193.509 67.569,195.207 67.907,196.365 67.986 C 222.185 69.746,247.687 92.268,257.987 122.407 C 258.752 124.648,259.519 126.640,259.690 126.833 C 259.860 127.027,260.000 117.302,260.000 105.223 C 260.000 77.004,259.168 79.149,270.185 78.959 C 273.852 78.896,276.995 78.703,277.169 78.531 C 277.517 78.187,276.979 74.467,275.900 69.756 C 275.519 68.094,275.114 66.178,275.000 65.497 C 274.046 59.820,268.445 47.830,263.411 40.690 C 251.567 23.890,233.716 14.560,206.801 11.105 C 201.473 10.420,175.662 10.079,170.370 10.622 " stroke="none" fill="#046c43" fill-rule="evenodd"></path><path id="path2" d="M270.674 78.869 C 263.128 79.093,262.762 79.196,260.949 81.624 C 260.202 82.623,260.181 83.149,260.000 104.934 L 259.815 127.222 237.527 127.407 C 215.741 127.588,215.215 127.610,214.194 128.357 C 211.875 130.053,211.903 129.792,211.779 150.580 L 211.667 169.494 212.700 170.853 C 214.537 173.268,213.186 173.148,238.519 173.148 L 261.667 173.148 264.444 171.871 C 277.244 165.989,283.774 159.039,287.954 146.852 C 291.389 136.840,298.134 126.336,304.276 121.435 L 306.296 119.823 306.296 102.039 C 306.296 81.282,306.248 80.990,302.518 79.041 C 301.465 78.491,286.246 78.409,270.674 78.869 M303.132 129.352 C 298.725 134.118,294.824 140.921,291.824 149.074 C 286.235 164.266,276.888 173.750,262.778 178.546 L 259.815 179.554 259.815 198.388 C 259.815 224.163,257.155 221.481,282.721 221.481 C 302.290 221.481,303.073 221.413,304.637 219.553 C 306.230 217.660,306.292 216.726,306.294 194.551 L 306.296 173.361 328.455 173.255 L 350.614 173.148 352.013 172.081 C 354.488 170.193,354.444 170.586,354.444 149.994 C 354.444 129.854,354.507 130.492,352.348 128.449 C 350.465 126.668,350.447 126.667,327.413 126.667 L 305.616 126.667 303.132 129.352 M114.259 163.726 C 98.035 165.617,92.555 166.592,78.704 170.048 C 70.949 171.984,55.213 176.845,53.723 177.766 C 52.772 178.354,54.246 189.808,56.679 200.741 C 68.670 254.606,118.189 279.373,193.662 269.250 C 196.639 268.850,199.163 268.523,199.272 268.521 C 199.779 268.514,199.771 244.668,199.263 239.947 C 198.386 231.797,195.850 221.651,192.690 213.653 L 190.987 209.343 181.142 209.147 C 148.990 208.505,132.415 194.683,132.198 168.333 C 132.168 164.755,131.981 163.965,131.111 163.754 C 129.787 163.433,116.957 163.411,114.259 163.726 M203.780 297.870 C 203.564 299.551,203.092 303.379,202.732 306.378 L 202.077 311.830 201.131 311.563 C 200.611 311.416,198.102 311.310,195.556 311.327 C 181.994 311.416,173.331 319.882,170.564 335.753 C 168.123 349.750,172.527 358.706,183.333 361.720 C 190.326 363.671,212.181 361.211,212.754 358.409 C 212.959 357.406,213.659 351.350,213.919 348.333 C 214.120 346.005,216.375 327.825,218.882 308.333 C 219.694 302.019,220.362 296.394,220.365 295.833 L 220.370 294.815 212.272 294.815 L 204.173 294.815 203.780 297.870 M161.622 297.147 L 151.207 299.016 150.603 303.540 C 150.272 306.028,150.000 308.333,150.000 308.662 C 150.000 309.198,151.130 309.259,161.051 309.259 L 172.102 309.259 172.558 305.463 C 172.809 303.375,173.169 300.653,173.359 299.414 C 173.912 295.802,173.839 295.178,172.870 295.231 C 172.412 295.257,167.350 296.119,161.622 297.147 M279.493 297.442 C 274.848 297.825,268.050 298.829,267.743 299.178 C 267.614 299.324,267.142 302.444,266.695 306.111 C 266.248 309.778,264.818 321.028,263.519 331.111 C 262.220 341.194,261.060 350.694,260.942 352.222 C 260.704 355.287,260.418 357.820,260.143 359.301 L 259.963 360.269 264.889 360.968 C 277.616 362.773,290.113 361.798,297.011 358.462 C 309.632 352.357,312.693 332.771,301.917 327.067 L 301.056 326.611 302.857 324.694 C 305.322 322.070,306.118 320.657,307.056 317.239 C 310.980 302.936,300.876 295.680,279.493 297.442 M329.259 297.269 C 326.787 297.490,319.695 298.515,317.731 298.935 L 316.017 299.301 315.782 301.410 C 315.652 302.570,315.458 304.602,315.350 305.926 C 315.241 307.250,314.003 317.333,312.598 328.333 C 309.907 349.409,309.039 356.346,308.695 359.537 L 308.486 361.481 317.021 361.481 C 321.715 361.481,325.557 361.356,325.558 361.204 C 325.559 361.051,326.141 356.426,326.850 350.926 C 327.560 345.426,328.142 340.746,328.144 340.527 C 328.146 340.301,328.589 340.197,329.167 340.287 C 330.249 340.456,329.902 339.781,337.914 357.305 L 339.815 361.462 349.012 361.472 C 354.071 361.477,358.146 361.356,358.067 361.204 C 357.989 361.051,357.371 359.759,356.695 358.333 C 356.019 356.907,354.343 353.657,352.971 351.111 C 351.599 348.565,349.556 344.700,348.432 342.524 L 346.387 338.566 349.252 336.901 C 356.642 332.607,359.774 325.811,359.561 314.530 C 359.392 305.532,357.992 303.022,351.370 299.845 C 346.507 297.511,337.836 296.501,329.259 297.269 M289.362 310.536 C 290.806 311.482,291.346 313.553,290.792 316.026 C 289.884 320.086,287.736 321.828,283.622 321.844 L 281.503 321.852 281.706 318.981 C 282.006 314.743,282.544 310.379,282.820 309.931 C 283.207 309.305,288.187 309.765,289.362 310.536 M340.006 310.463 C 345.272 313.132,344.067 325.015,338.260 327.674 C 336.285 328.578,330.404 329.046,329.712 328.354 C 329.527 328.169,331.121 314.293,331.724 310.833 L 331.934 309.630 335.148 309.630 C 337.747 309.630,338.676 309.789,340.006 310.463 M63.148 311.162 C 53.450 311.849,47.240 316.574,45.330 324.719 C 43.552 332.299,46.371 336.326,57.274 341.787 C 65.958 346.137,65.411 350.899,56.347 349.857 C 52.156 349.375,51.230 349.177,47.666 348.000 C 45.669 347.340,43.947 346.944,43.839 347.118 C 43.288 348.010,40.370 357.330,40.370 358.199 C 40.370 360.869,54.653 363.485,62.534 362.258 C 69.024 361.247,75.064 357.710,76.898 353.844 L 77.540 352.492 78.023 354.150 C 79.052 357.679,82.925 360.617,88.519 362.113 C 95.411 363.955,115.374 361.806,118.276 358.909 C 119.139 358.047,122.660 326.914,122.257 323.704 C 120.959 313.355,112.304 309.131,97.551 311.645 C 94.623 312.145,86.130 314.543,85.610 315.018 C 85.124 315.462,86.863 326.300,87.388 326.096 C 92.171 324.239,102.386 323.598,104.314 325.034 C 105.570 325.970,105.950 327.526,105.668 330.581 L 105.461 332.829 103.008 332.354 C 93.703 330.552,84.051 333.523,80.320 339.337 L 79.173 341.125 78.434 339.632 C 77.244 337.226,74.696 335.333,68.691 332.395 C 61.372 328.814,60.177 327.623,61.474 325.200 C 62.658 322.987,69.694 323.399,76.258 326.066 L 78.472 326.966 80.000 322.094 C 80.840 319.415,81.684 316.739,81.875 316.148 C 82.449 314.374,82.333 314.240,79.352 313.228 C 73.589 311.271,69.309 310.726,63.148 311.162 M237.222 311.659 C 224.491 314.462,217.270 325.172,217.238 341.296 C 217.202 360.096,230.691 367.043,254.167 360.315 L 256.667 359.598 256.667 353.688 C 256.667 350.437,256.625 347.780,256.574 347.783 C 256.523 347.785,255.439 348.114,254.165 348.514 C 249.149 350.086,239.775 350.305,236.908 348.917 C 234.238 347.623,232.715 344.076,233.040 339.908 L 233.148 338.520 246.316 338.519 L 259.483 338.519 260.095 336.759 C 265.977 319.832,254.970 307.752,237.222 311.659 M127.602 312.315 C 127.389 312.960,125.243 330.356,124.986 333.519 C 124.870 334.944,124.534 338.021,124.239 340.355 C 122.783 351.897,124.327 356.383,130.966 359.900 C 137.448 363.334,150.150 362.889,162.480 358.798 L 166.111 357.593 166.221 355.926 C 166.323 354.390,168.383 337.832,170.572 320.953 C 171.072 317.097,171.481 313.472,171.481 312.897 L 171.481 311.852 163.333 311.852 C 156.913 311.852,155.185 311.953,155.185 312.331 C 155.185 312.595,154.600 317.303,153.884 322.794 C 153.168 328.285,152.483 334.028,152.361 335.556 C 152.019 339.839,150.836 348.917,150.588 349.165 C 150.141 349.612,144.583 349.696,143.037 349.279 C 139.660 348.370,139.467 346.894,141.094 334.444 C 141.693 329.861,142.529 323.444,142.953 320.185 C 143.377 316.926,143.821 313.718,143.940 313.056 L 144.157 311.852 135.956 311.852 C 129.723 311.852,127.718 311.963,127.602 312.315 M245.979 323.643 C 247.140 324.681,247.843 327.176,247.483 328.981 C 247.342 329.686,234.815 330.015,234.815 329.315 C 234.815 324.266,242.377 320.425,245.979 323.643 M200.103 323.538 C 200.516 323.697,200.574 324.096,200.358 325.298 C 200.204 326.152,199.983 328.102,199.867 329.630 C 199.084 339.908,197.614 349.340,196.744 349.671 C 190.652 351.987,186.300 347.607,186.781 339.642 C 187.461 328.357,193.533 321.017,200.103 323.538 M287.070 334.116 C 293.888 335.578,293.203 345.877,286.149 347.972 C 283.828 348.662,278.521 348.719,278.513 348.056 C 278.510 347.801,278.875 344.468,279.324 340.648 L 280.142 333.704 282.645 333.704 C 284.022 333.704,286.013 333.889,287.070 334.116 M104.252 341.906 C 104.520 342.175,103.360 351.232,103.013 351.579 C 101.661 352.931,95.095 351.980,93.888 350.257 C 92.210 347.861,94.190 343.062,97.407 341.727 C 98.040 341.464,103.966 341.620,104.252 341.906 M223.148 374.484 C 221.742 375.558,221.524 376.091,222.206 376.791 C 222.435 377.026,224.871 375.820,225.863 374.982 C 226.061 374.815,225.185 373.332,224.894 373.344 C 224.749 373.349,223.963 373.863,223.148 374.484 M98.281 374.239 C 97.475 374.590,96.983 375.154,96.678 376.076 C 96.335 377.117,96.043 377.407,95.342 377.407 C 94.632 377.407,94.444 377.600,94.444 378.333 C 94.444 379.054,94.634 379.259,95.301 379.259 L 96.158 379.259 95.723 382.500 C 95.484 384.282,95.176 386.616,95.039 387.685 L 94.789 389.630 95.872 389.630 L 96.954 389.630 97.398 386.002 C 97.643 384.006,97.870 381.674,97.903 380.819 C 97.962 379.280,97.977 379.263,99.352 379.261 C 101.390 379.258,101.456 377.515,99.425 377.337 C 97.494 377.168,98.505 375.778,100.503 375.853 C 102.136 375.914,102.557 374.349,101.019 373.937 C 99.873 373.630,99.614 373.659,98.281 374.239 M53.520 379.848 C 52.723 386.457,52.809 386.852,55.040 386.852 C 56.253 386.852,56.500 386.720,56.600 386.019 C 56.694 385.354,56.539 385.185,55.833 385.185 L 54.948 385.185 55.613 379.950 C 56.329 374.309,56.307 374.074,55.050 374.074 C 54.252 374.074,54.188 374.315,53.520 379.848 M168.752 374.907 C 168.629 375.366,168.526 376.116,168.524 376.574 C 168.519 377.300,168.326 377.407,167.019 377.407 C 164.008 377.407,162.420 379.149,161.970 382.943 C 161.626 385.854,163.179 387.210,166.549 386.940 C 169.544 386.699,169.380 386.989,170.146 380.629 C 170.495 377.737,170.866 375.079,170.970 374.722 C 171.122 374.208,170.935 374.074,170.068 374.074 C 169.248 374.074,168.920 374.282,168.752 374.907 M237.654 374.321 C 237.519 374.457,237.407 375.207,237.407 375.988 L 237.407 377.407 235.638 377.407 C 230.688 377.407,228.524 385.724,233.170 386.890 C 234.078 387.118,237.708 386.860,238.023 386.545 C 238.182 386.386,239.624 375.760,239.628 374.722 C 239.630 374.076,238.192 373.783,237.654 374.321 M308.395 374.321 C 307.687 375.029,308.162 376.667,309.074 376.667 C 309.885 376.667,310.000 376.506,310.000 375.370 C 310.000 374.119,309.152 373.564,308.395 374.321 M315.370 374.444 C 315.244 374.648,315.214 374.940,315.303 375.093 C 315.392 375.245,315.243 377.120,314.972 379.259 C 314.056 386.493,314.177 387.037,316.697 387.037 C 317.603 387.037,317.778 386.887,317.778 386.111 C 317.778 385.432,317.580 385.185,317.037 385.185 C 316.132 385.185,316.115 384.641,316.852 379.259 C 317.568 374.022,317.572 374.074,316.503 374.074 C 316.006 374.074,315.496 374.241,315.370 374.444 M335.048 374.907 C 334.662 376.348,334.788 376.667,335.741 376.667 C 336.250 376.667,336.669 376.458,336.672 376.204 C 336.675 375.949,336.777 375.366,336.900 374.907 C 337.088 374.206,336.977 374.074,336.198 374.074 C 335.550 374.074,335.204 374.325,335.048 374.907 M197.143 374.704 C 195.665 374.990,194.074 376.823,194.074 378.239 C 194.074 379.721,194.597 380.269,197.315 381.631 C 200.599 383.277,199.259 385.834,195.621 384.861 C 193.955 384.415,192.963 384.817,192.963 385.937 C 192.963 386.422,194.893 387.037,196.412 387.037 C 201.590 387.037,203.036 382.261,198.582 379.870 C 195.286 378.101,195.617 376.512,199.237 376.729 C 201.935 376.890,202.571 375.522,200.115 374.841 C 198.667 374.438,198.545 374.433,197.143 374.704 M41.312 375.648 C 40.126 381.021,40.068 387.132,41.204 386.970 C 41.924 386.868,42.078 386.544,42.342 384.579 C 42.599 382.657,42.748 382.332,43.306 382.478 C 47.381 383.544,51.265 376.926,47.557 375.236 C 45.746 374.411,41.523 374.690,41.312 375.648 M263.585 375.093 C 262.987 376.113,262.135 386.385,262.623 386.693 C 266.400 389.084,273.178 383.802,270.011 380.936 C 269.284 380.278,269.284 380.270,270.011 379.347 C 271.916 376.925,270.205 374.815,266.335 374.815 C 264.912 374.815,263.674 374.940,263.585 375.093 M74.315 376.296 C 74.193 376.907,73.858 377.407,73.571 377.407 C 72.752 377.407,72.509 378.936,73.295 379.142 C 73.856 379.289,73.908 379.558,73.663 381.045 C 72.887 385.755,73.349 387.045,75.809 387.031 C 77.198 387.024,77.880 386.546,77.716 385.696 C 77.610 385.149,77.318 385.027,76.347 385.124 C 75.170 385.243,75.122 385.199,75.314 384.198 C 75.425 383.621,75.624 382.273,75.756 381.204 C 75.990 379.299,76.021 379.259,77.217 379.259 C 77.990 379.259,78.522 379.044,78.664 378.673 C 79.073 377.609,78.902 377.407,77.593 377.407 C 76.399 377.407,76.296 377.319,76.296 376.296 C 76.296 375.374,76.147 375.185,75.417 375.185 C 74.736 375.185,74.487 375.436,74.315 376.296 M46.590 377.258 C 47.430 378.758,46.476 380.167,44.352 380.564 C 42.818 380.850,42.663 380.482,43.194 377.824 C 43.463 376.482,45.926 376.071,46.590 377.258 M268.346 377.058 C 269.014 378.139,268.156 379.259,266.660 379.259 C 265.133 379.259,264.998 379.068,265.419 377.500 C 265.660 376.600,267.858 376.268,268.346 377.058 M63.889 377.761 C 60.956 378.974,59.785 384.459,62.074 386.259 C 63.539 387.411,69.021 387.226,69.192 386.019 C 69.275 385.438,69.122 385.185,68.689 385.185 C 68.231 385.185,68.122 384.966,68.273 384.352 C 69.067 381.127,68.984 377.889,68.102 377.653 C 66.908 377.333,64.791 377.388,63.889 377.761 M84.885 378.133 C 82.537 379.612,81.706 384.333,83.482 386.108 C 84.686 387.312,90.450 387.350,90.680 386.155 C 90.753 385.772,90.607 385.331,90.354 385.175 C 89.989 384.950,89.985 384.178,90.332 381.472 C 90.573 379.592,90.693 377.977,90.600 377.883 C 89.961 377.245,86.022 377.417,84.885 378.133 M105.557 378.460 C 102.440 381.577,103.420 387.037,107.096 387.037 C 110.289 387.037,111.852 385.149,111.852 381.291 C 111.852 377.534,108.149 375.869,105.557 378.460 M117.025 377.685 C 117.019 377.838,116.774 379.713,116.481 381.852 C 115.765 387.089,115.761 387.037,116.830 387.037 C 118.049 387.037,118.116 386.864,118.390 383.002 L 118.629 379.643 119.962 379.397 C 121.307 379.150,121.836 378.722,121.846 377.870 C 121.853 377.310,120.226 377.260,119.235 377.791 C 118.741 378.055,118.519 378.055,118.519 377.791 C 118.519 377.358,117.044 377.254,117.025 377.685 M127.134 377.821 C 125.773 378.214,125.708 378.390,125.244 382.963 C 124.876 386.593,124.967 387.037,126.076 387.037 C 126.824 387.037,126.923 386.756,127.342 383.435 C 127.859 379.339,127.960 379.161,129.675 379.325 C 131.100 379.461,131.154 379.770,130.583 384.537 C 130.285 387.026,130.288 387.037,131.194 387.037 C 132.067 387.037,132.121 386.892,132.542 383.469 C 133.064 379.222,133.045 379.259,134.612 379.259 C 136.118 379.259,136.275 379.620,135.902 382.222 C 135.373 385.910,135.462 387.037,136.283 387.037 C 137.846 387.037,138.933 379.629,137.589 378.144 C 136.851 377.329,134.194 377.119,132.961 377.779 C 132.497 378.027,132.191 378.027,132.038 377.779 C 131.756 377.323,128.767 377.349,127.134 377.821 M145.255 378.133 C 142.907 379.612,142.077 384.333,143.852 386.108 C 145.158 387.414,150.856 387.343,151.044 386.019 C 151.118 385.499,150.970 385.185,150.650 385.185 C 150.215 385.185,150.211 384.644,150.628 381.608 C 150.897 379.641,151.046 377.960,150.959 377.872 C 150.329 377.243,146.383 377.423,145.255 378.133 M176.999 378.255 C 174.468 379.959,173.696 384.444,175.645 386.122 C 177.139 387.408,182.710 387.328,182.896 386.019 C 182.979 385.437,182.826 385.185,182.390 385.185 C 181.923 385.185,181.822 384.975,181.988 384.352 C 182.791 381.350,182.698 377.892,181.808 377.654 C 180.054 377.184,178.255 377.409,176.999 378.255 M208.475 377.964 C 206.104 379.252,205.253 384.509,207.150 386.143 C 208.215 387.059,209.763 387.293,210.728 386.682 C 211.069 386.466,211.441 386.479,211.726 386.716 C 212.501 387.359,213.877 386.938,214.007 386.019 C 214.072 385.560,213.936 385.185,213.705 385.185 C 213.473 385.185,213.367 384.894,213.469 384.537 C 214.201 381.986,214.066 377.862,213.244 377.642 C 211.809 377.257,209.487 377.414,208.475 377.964 M219.136 378.241 C 217.500 384.932,218.452 386.998,223.153 386.963 C 226.457 386.939,227.557 386.383,226.228 385.409 C 225.744 385.055,225.726 384.512,226.093 381.375 C 226.555 377.419,226.553 377.407,225.335 377.407 C 224.593 377.407,224.468 377.649,224.237 379.537 C 223.517 385.411,223.683 385.000,222.032 385.000 L 220.556 385.000 220.637 382.593 C 220.681 381.269,220.808 379.560,220.919 378.796 C 221.160 377.127,219.532 376.619,219.136 378.241 M245.888 378.248 C 240.882 381.592,243.464 388.332,249.167 386.804 C 250.989 386.315,250.246 384.733,248.330 385.020 C 247.212 385.187,246.477 385.119,246.108 384.812 C 245.288 384.131,245.437 383.704,246.493 383.704 C 248.999 383.704,251.111 381.897,251.111 379.753 C 251.111 377.472,248.274 376.655,245.888 378.248 M276.103 377.912 C 275.817 378.783,274.957 386.685,275.129 386.857 C 276.447 388.175,277.224 386.735,277.646 382.190 C 277.892 379.541,278.129 379.277,280.278 379.264 C 280.912 379.260,281.111 379.044,281.111 378.361 C 281.111 377.367,276.420 376.946,276.103 377.912 M286.815 378.088 C 284.000 379.858,283.619 385.615,286.252 386.615 C 289.024 387.668,294.243 386.434,292.244 385.198 C 291.929 385.004,291.927 384.070,292.238 381.512 C 292.467 379.628,292.554 377.986,292.431 377.863 C 291.802 377.235,287.925 377.390,286.815 378.088 M297.924 378.339 C 296.576 379.686,296.780 381.812,298.333 382.604 C 300.900 383.912,300.936 383.948,300.370 384.630 C 299.861 385.244,298.525 385.248,296.993 384.640 C 296.112 384.291,295.736 385.961,296.558 386.574 C 298.523 388.040,302.593 386.248,302.593 383.917 C 302.593 382.884,301.435 381.481,300.582 381.481 C 299.777 381.481,298.892 380.423,299.146 379.762 C 299.319 379.310,299.738 379.217,300.971 379.356 C 302.334 379.510,302.607 379.426,302.807 378.796 C 303.333 377.140,299.483 376.780,297.924 378.339 M307.384 381.759 C 306.741 387.213,306.729 386.818,307.539 386.974 C 308.573 387.173,308.847 386.683,309.062 384.252 C 309.170 383.034,309.361 380.995,309.487 379.722 C 309.712 377.449,309.699 377.407,308.807 377.407 C 307.923 377.407,307.884 377.525,307.384 381.759 M325.370 377.763 C 319.688 380.129,321.744 388.003,327.731 386.806 C 329.937 386.364,329.358 384.727,327.103 385.026 C 324.127 385.421,323.179 384.089,326.031 383.520 C 328.458 383.035,329.083 382.584,329.633 380.914 C 330.502 378.284,328.202 376.584,325.370 377.763 M334.653 378.241 C 334.383 379.523,333.704 385.196,333.704 386.170 C 333.704 387.422,335.088 387.341,335.575 386.060 C 336.447 383.765,336.478 377.407,335.617 377.407 C 335.099 377.407,334.769 377.693,334.653 378.241 M341.685 377.870 C 341.473 378.555,340.741 384.892,340.741 386.044 C 340.741 388.633,342.807 386.932,342.910 384.259 C 343.077 379.870,343.780 378.641,345.702 379.378 C 346.040 379.508,346.282 379.254,346.398 378.648 C 346.618 377.497,345.856 377.132,344.390 377.685 C 343.797 377.909,343.333 377.935,343.333 377.746 C 343.333 377.230,341.849 377.342,341.685 377.870 M352.335 378.132 C 349.615 379.790,348.707 383.949,350.643 385.885 C 352.157 387.399,357.871 387.501,358.081 386.019 C 358.164 385.438,358.011 385.185,357.578 385.185 C 357.121 385.185,357.010 384.965,357.158 384.352 C 357.745 381.921,357.867 378.062,357.366 377.745 C 356.437 377.156,353.574 377.376,352.335 378.132 M66.504 382.130 L 66.109 385.000 64.909 385.116 C 63.229 385.278,62.666 384.049,63.332 381.672 C 63.842 379.851,64.455 379.288,65.950 379.271 L 66.899 379.259 66.504 382.130 M88.255 380.833 C 87.770 384.784,87.668 385.000,86.296 385.000 C 84.813 385.000,84.417 384.093,84.849 381.689 C 85.362 378.837,88.600 378.023,88.255 380.833 M109.634 379.820 C 110.243 380.554,109.842 383.596,109.015 384.510 C 108.087 385.535,106.358 385.395,105.926 384.259 C 104.803 381.305,107.844 377.664,109.634 379.820 M148.625 380.833 C 148.139 384.794,148.041 385.000,146.650 385.000 L 145.370 385.000 145.260 382.888 C 145.131 380.427,145.930 379.259,147.743 379.259 C 148.792 379.259,148.814 379.298,148.625 380.833 M167.978 381.204 C 167.494 385.131,167.469 385.185,166.127 385.185 C 164.495 385.185,163.929 384.428,164.178 382.575 C 164.485 380.280,165.322 379.259,166.895 379.259 L 168.218 379.259 167.978 381.204 M180.208 382.130 L 179.813 385.000 178.613 385.116 C 176.933 385.278,176.370 384.049,177.036 381.672 C 177.545 379.851,178.159 379.288,179.653 379.271 L 180.603 379.259 180.208 382.130 M211.722 381.944 C 211.338 384.833,211.109 385.171,209.528 385.180 C 208.234 385.187,207.706 383.997,208.143 382.059 C 208.563 380.199,209.492 379.259,210.912 379.259 L 212.079 379.259 211.722 381.944 M236.901 380.278 C 236.794 380.838,236.597 382.180,236.464 383.261 L 236.221 385.225 234.907 385.113 C 231.708 384.838,232.556 379.259,235.797 379.259 C 237.014 379.259,237.084 379.323,236.901 380.278 M248.889 380.172 C 248.889 381.197,247.956 381.852,246.496 381.852 C 245.556 381.852,245.548 381.830,246.094 380.774 C 246.990 379.041,248.889 378.632,248.889 380.172 M290.128 381.574 C 289.816 384.708,289.492 385.256,288.031 385.114 C 285.516 384.871,286.683 379.259,289.248 379.259 L 290.359 379.259 290.128 381.574 M327.778 380.172 C 327.778 381.195,326.845 381.852,325.395 381.852 C 324.244 381.852,324.206 381.515,325.212 380.235 C 326.240 378.928,327.778 378.890,327.778 380.172 M355.710 381.574 C 355.322 385.142,353.421 386.684,352.207 384.417 C 351.150 382.441,352.770 379.259,354.833 379.259 L 355.963 379.259 355.710 381.574 M267.933 381.706 C 269.793 382.420,267.947 385.185,265.610 385.185 C 264.357 385.185,264.349 385.174,264.577 383.796 C 264.703 383.032,264.808 382.199,264.811 381.944 C 264.815 381.458,266.877 381.301,267.933 381.706 " stroke="none" fill="#04539c" fill-rule="evenodd"></path><path id="path3" d="M211.640 140.185 C 211.641 144.870,211.694 146.736,211.758 144.331 C 211.823 141.926,211.823 138.093,211.758 135.812 C 211.693 133.532,211.640 135.500,211.640 140.185 M118.426 163.224 C 118.884 163.313,119.634 163.313,120.093 163.224 C 120.551 163.136,120.176 163.064,119.259 163.064 C 118.343 163.064,117.968 163.136,118.426 163.224 M124.912 163.229 C 125.475 163.314,126.309 163.312,126.764 163.224 C 127.220 163.136,126.759 163.066,125.741 163.069 C 124.722 163.072,124.350 163.144,124.912 163.229 M199.731 246.667 C 199.731 247.583,199.803 247.958,199.891 247.500 C 199.979 247.042,199.979 246.292,199.891 245.833 C 199.803 245.375,199.731 245.750,199.731 246.667 M199.723 262.407 C 199.727 263.222,199.803 263.512,199.892 263.051 C 199.980 262.591,199.977 261.924,199.884 261.570 C 199.791 261.216,199.719 261.593,199.723 262.407 " stroke="none" fill="#757c66" fill-rule="evenodd"></path><path id="path4" d="M227.712 127.315 C 233.685 127.372,243.351 127.372,249.193 127.315 C 255.035 127.257,250.148 127.210,238.333 127.210 C 226.519 127.211,221.739 127.257,227.712 127.315 M121.579 163.229 C 122.142 163.314,122.975 163.312,123.431 163.224 C 123.887 163.136,123.426 163.066,122.407 163.069 C 121.389 163.072,121.016 163.144,121.579 163.229 M111.574 163.959 C 111.931 164.052,112.514 164.052,112.870 163.959 C 113.227 163.866,112.935 163.790,112.222 163.790 C 111.509 163.790,111.218 163.866,111.574 163.959 M199.731 249.630 C 199.731 250.546,199.803 250.921,199.891 250.463 C 199.979 250.005,199.979 249.255,199.891 248.796 C 199.803 248.338,199.731 248.713,199.731 249.630 M199.731 252.963 C 199.731 253.880,199.803 254.255,199.891 253.796 C 199.979 253.338,199.979 252.588,199.891 252.130 C 199.803 251.671,199.731 252.046,199.731 252.963 M199.736 259.444 C 199.738 260.463,199.810 260.836,199.895 260.273 C 199.981 259.710,199.978 258.876,199.890 258.421 C 199.802 257.965,199.733 258.426,199.736 259.444 " stroke="none" fill="#5b7274" fill-rule="evenodd"></path></g></svg>