<svg id="svg" version="1.1" xmlns="http://www.w3.org/2000/svg" xmlns:xlink="http://www.w3.org/1999/xlink" width="400" height="132.5" viewBox="0, 0, 400,132.5"><g id="svgg"><path id="path0" d="M49.118 33.611 C 49.066 33.694,49.254 33.865,49.536 33.989 C 50.761 34.531,52.088 36.540,52.277 38.136 C 52.334 38.611,52.444 39.000,52.523 39.000 C 52.784 39.000,52.696 42.661,52.429 42.929 C 52.229 43.129,50.853 43.167,43.826 43.167 L 35.462 43.167 35.578 42.392 C 35.642 41.966,35.760 41.497,35.840 41.351 C 35.920 41.204,36.109 40.633,36.259 40.083 C 36.410 39.533,36.582 39.046,36.642 39.000 C 36.701 38.954,36.918 38.579,37.124 38.167 C 37.885 36.642,38.947 35.315,39.904 34.693 L 40.583 34.251 40.115 34.197 C 37.188 33.857,24.557 39.079,16.520 43.951 C 15.569 44.528,14.729 45.000,14.653 45.000 C 14.577 45.000,14.469 45.281,14.412 45.625 C 14.355 45.969,14.239 46.438,14.154 46.667 C 13.966 47.179,13.500 51.121,13.500 52.207 C 13.500 52.643,13.425 53.000,13.333 53.000 C 13.227 53.000,13.167 54.444,13.167 57.000 C 13.167 60.427,13.202 61.000,13.414 61.000 C 13.550 61.000,14.432 60.746,15.373 60.436 C 18.417 59.433,20.397 58.916,24.112 58.157 C 26.617 57.645,31.511 57.289,32.625 57.537 C 33.120 57.648,33.167 57.624,33.167 57.256 C 33.167 57.034,33.242 56.807,33.333 56.750 C 33.425 56.693,33.500 56.052,33.500 55.325 L 33.500 54.003 43.292 53.960 L 53.083 53.917 53.176 51.667 C 53.322 48.100,52.855 48.333,59.844 48.333 L 65.204 48.333 65.095 47.756 C 64.452 44.326,60.435 38.653,56.979 36.293 C 54.563 34.644,49.539 32.930,49.118 33.611 M63.261 66.148 C 63.211 66.230,62.643 66.426,62.000 66.583 C 61.357 66.741,60.795 66.927,60.752 66.996 C 60.709 67.066,60.016 67.252,59.212 67.411 C 58.408 67.570,57.600 67.765,57.417 67.845 C 57.028 68.015,53.778 68.500,53.030 68.500 C 52.749 68.500,52.479 68.566,52.429 68.646 C 52.379 68.727,51.393 68.847,50.238 68.914 C 48.393 69.020,48.148 69.069,48.228 69.309 C 48.278 69.460,48.615 70.413,48.976 71.427 C 49.946 74.151,50.333 76.865,50.333 80.931 L 50.333 84.191 51.292 84.073 C 51.819 84.009,52.275 83.891,52.306 83.811 C 52.336 83.732,52.520 83.667,52.715 83.667 C 53.273 83.667,56.407 83.126,56.500 83.014 C 56.546 82.958,57.483 82.734,58.583 82.517 C 59.683 82.299,60.621 82.071,60.667 82.010 C 60.712 81.950,61.347 81.773,62.077 81.617 C 63.951 81.218,63.784 81.953,63.920 73.458 C 64.039 66.001,64.039 66.000,63.696 66.000 C 63.507 66.000,63.312 66.067,63.261 66.148 " stroke="none" fill="#fbbb04" fill-rule="evenodd"></path><path id="path1" d="M41.500 19.028 C 40.904 19.110,40.270 19.179,40.091 19.180 C 39.912 19.181,39.687 19.243,39.591 19.317 C 39.495 19.392,38.817 19.546,38.083 19.661 C 37.350 19.776,36.563 19.964,36.333 20.079 C 36.104 20.194,35.504 20.382,35.000 20.496 C 34.496 20.611,33.933 20.797,33.750 20.910 C 33.567 21.023,33.117 21.214,32.750 21.334 C 32.383 21.455,31.521 21.853,30.833 22.219 C 30.146 22.585,29.377 22.991,29.125 23.121 C 28.873 23.251,28.667 23.427,28.667 23.512 C 28.667 23.597,28.583 23.667,28.481 23.667 C 27.866 23.667,23.882 27.229,22.135 29.340 C 21.252 30.408,20.333 31.651,20.333 31.779 C 20.333 31.839,20.219 32.007,20.079 32.153 C 19.761 32.483,19.091 33.505,18.729 34.213 C 18.577 34.508,18.403 34.787,18.340 34.833 C 18.278 34.879,18.094 35.254,17.932 35.666 C 17.769 36.078,17.587 36.453,17.527 36.500 C 17.331 36.649,16.299 39.062,16.119 39.792 C 16.023 40.181,15.888 40.500,15.819 40.500 C 15.751 40.500,15.562 41.063,15.400 41.750 C 15.238 42.438,15.053 43.000,14.988 43.000 C 14.924 43.000,14.819 43.347,14.756 43.771 C 14.692 44.196,14.600 44.646,14.552 44.771 C 14.399 45.171,14.748 45.026,16.520 43.951 C 24.408 39.169,36.408 34.167,39.991 34.167 C 40.465 34.167,41.959 33.716,42.261 33.481 C 42.913 32.975,47.741 32.948,48.547 33.446 C 48.651 33.510,49.227 33.578,49.826 33.597 C 55.939 33.791,62.465 39.823,65.138 47.750 C 65.259 48.109,65.311 46.731,65.320 42.867 C 65.337 35.939,65.241 36.167,68.156 36.167 L 69.833 36.167 69.833 35.688 C 69.833 34.980,69.339 32.275,69.191 32.172 C 69.120 32.123,68.928 31.577,68.763 30.958 C 68.598 30.340,68.404 29.833,68.332 29.833 C 68.259 29.833,68.065 29.458,67.900 29.000 C 67.736 28.542,67.546 28.167,67.478 28.167 C 67.411 28.167,67.303 28.000,67.238 27.796 C 66.938 26.850,64.289 23.666,63.319 23.083 C 63.166 22.992,62.577 22.598,62.009 22.208 C 61.441 21.819,60.944 21.500,60.905 21.500 C 60.866 21.500,60.358 21.275,59.776 21.000 C 59.194 20.725,58.636 20.500,58.536 20.500 C 58.437 20.500,58.144 20.413,57.886 20.306 C 57.628 20.199,57.379 20.099,57.333 20.083 C 57.288 20.067,57.137 20.004,57.000 19.943 C 56.779 19.844,54.995 19.444,53.833 19.233 C 51.634 18.834,43.852 18.704,41.500 19.028 " stroke="none" fill="#046c43" fill-rule="evenodd"></path><path id="path2" d="M245.054 22.630 C 244.934 22.706,244.749 23.919,244.579 25.752 C 244.426 27.401,244.237 28.900,244.158 29.083 C 244.079 29.267,243.889 30.804,243.737 32.500 C 243.584 34.196,243.393 35.655,243.313 35.742 C 243.232 35.829,243.166 36.279,243.164 36.742 C 243.160 38.023,243.106 38.060,241.566 37.825 C 239.777 37.553,234.667 37.430,234.667 37.659 C 234.667 37.755,234.385 37.833,234.042 37.833 C 233.281 37.833,230.449 38.335,230.333 38.492 C 230.287 38.553,229.744 38.739,229.125 38.904 C 228.506 39.069,228.000 39.270,228.000 39.352 C 228.000 39.433,227.890 39.500,227.756 39.500 C 227.512 39.500,226.400 39.971,226.083 40.208 C 225.663 40.523,224.124 41.500,224.048 41.500 C 223.805 41.500,220.815 44.447,220.405 45.092 C 220.232 45.362,219.996 45.643,219.879 45.717 C 219.762 45.790,219.667 45.945,219.667 46.060 C 219.667 46.176,219.533 46.416,219.370 46.594 C 218.835 47.176,216.833 50.867,216.833 51.272 C 216.833 51.397,216.772 51.500,216.697 51.500 C 216.622 51.500,216.429 51.931,216.269 52.458 C 216.108 52.985,215.877 53.642,215.755 53.917 C 215.634 54.192,215.437 54.867,215.319 55.417 C 215.201 55.967,215.051 56.454,214.986 56.500 C 214.866 56.585,214.291 59.732,213.982 62.000 C 213.761 63.614,213.859 70.875,214.105 71.187 C 214.204 71.313,214.378 71.904,214.491 72.500 C 214.603 73.096,214.795 73.808,214.915 74.083 C 215.036 74.358,215.265 74.940,215.424 75.375 C 215.582 75.810,215.762 76.167,215.822 76.167 C 215.883 76.167,216.021 76.411,216.129 76.709 C 216.475 77.666,219.555 81.000,220.093 81.000 C 220.210 81.000,220.331 81.059,220.361 81.132 C 220.467 81.383,222.258 82.293,223.252 82.599 C 223.801 82.769,224.287 82.955,224.333 83.012 C 224.454 83.163,227.073 83.667,227.739 83.667 C 228.051 83.667,228.337 83.760,228.375 83.875 C 228.465 84.144,238.646 84.144,239.216 83.875 C 239.418 83.779,240.671 83.613,242.000 83.504 C 243.329 83.396,244.717 83.243,245.083 83.165 C 245.450 83.086,246.650 82.831,247.750 82.598 C 248.850 82.365,250.162 82.025,250.667 81.842 C 251.171 81.660,251.703 81.508,251.849 81.505 C 252.482 81.492,252.623 80.987,252.927 77.625 C 253.091 75.815,253.275 74.333,253.335 74.333 C 253.395 74.333,253.446 74.240,253.449 74.125 C 253.470 73.161,254.063 67.677,254.174 67.417 C 254.253 67.233,254.441 65.696,254.591 64.000 C 254.742 62.304,254.928 60.767,255.006 60.583 C 255.084 60.400,255.266 58.938,255.412 57.333 C 255.557 55.729,255.744 54.154,255.828 53.833 C 255.912 53.512,256.103 51.938,256.253 50.333 C 256.404 48.729,256.591 47.267,256.671 47.083 C 256.750 46.900,256.938 45.362,257.088 43.667 C 257.239 41.971,257.425 40.433,257.502 40.250 C 257.579 40.067,257.766 38.567,257.918 36.917 C 258.070 35.267,258.258 33.767,258.337 33.583 C 258.415 33.400,258.602 31.825,258.751 30.083 C 258.901 28.342,259.086 26.767,259.163 26.583 C 259.338 26.167,259.678 22.819,259.564 22.635 C 259.459 22.465,245.321 22.460,245.054 22.630 M215.250 23.268 C 214.608 23.395,213.108 23.646,211.917 23.827 C 210.725 24.008,209.450 24.231,209.083 24.323 C 208.717 24.415,207.554 24.608,206.500 24.752 C 205.446 24.895,204.358 25.080,204.083 25.161 C 203.808 25.242,202.608 25.435,201.417 25.589 C 200.225 25.742,199.175 25.926,199.083 25.997 C 198.992 26.068,198.411 26.179,197.793 26.243 C 196.418 26.386,196.591 26.006,196.239 29.667 C 196.076 31.363,195.890 32.787,195.826 32.833 C 195.762 32.879,195.656 33.573,195.590 34.375 L 195.470 35.833 199.958 35.833 C 202.426 35.833,206.924 35.784,209.952 35.723 L 215.459 35.614 215.642 34.348 C 216.408 29.069,216.619 27.719,216.712 27.500 C 216.770 27.363,216.899 26.500,216.998 25.583 C 217.098 24.667,217.220 23.710,217.269 23.458 C 217.377 22.914,217.149 22.893,215.250 23.268 M359.917 24.833 C 357.258 24.974,356.640 25.035,356.167 25.205 C 356.029 25.255,354.642 25.423,353.083 25.579 C 351.525 25.735,350.175 25.920,350.083 25.989 C 349.992 26.058,349.268 26.208,348.476 26.322 C 346.861 26.554,346.833 26.588,346.833 28.271 C 346.833 28.672,346.774 29.000,346.701 29.000 C 346.628 29.000,346.432 30.481,346.264 32.292 C 346.097 34.102,345.904 35.658,345.836 35.750 C 345.768 35.842,345.576 37.417,345.409 39.250 C 345.242 41.083,345.056 42.621,344.996 42.667 C 344.936 42.712,344.752 44.250,344.587 46.083 C 344.423 47.917,344.233 49.492,344.165 49.583 C 344.097 49.675,343.913 51.175,343.756 52.917 C 343.599 54.658,343.406 56.233,343.327 56.417 C 343.249 56.600,343.062 58.100,342.912 59.750 C 342.762 61.400,342.574 62.938,342.493 63.167 C 342.412 63.396,342.224 64.933,342.077 66.583 C 341.929 68.233,341.765 69.696,341.712 69.833 C 341.557 70.237,341.535 70.411,341.247 73.484 C 341.096 75.097,340.909 76.567,340.833 76.750 C 340.711 77.041,340.156 82.257,340.164 83.042 C 340.166 83.315,340.636 83.333,347.661 83.333 C 356.345 83.333,355.402 83.596,355.585 81.125 C 355.652 80.231,355.757 79.500,355.819 79.500 C 355.881 79.500,356.071 77.981,356.242 76.125 C 356.413 74.269,356.606 72.675,356.671 72.583 C 356.736 72.492,356.916 70.992,357.072 69.250 C 357.228 67.508,357.425 65.953,357.511 65.794 C 357.597 65.635,357.668 65.222,357.669 64.877 C 357.673 63.994,357.796 63.895,358.801 63.968 L 359.686 64.033 360.358 65.475 C 360.728 66.268,361.286 67.460,361.599 68.123 C 361.911 68.786,362.167 69.434,362.167 69.561 C 362.167 69.688,362.279 69.886,362.417 70.000 C 362.554 70.114,362.667 70.278,362.667 70.364 C 362.667 70.518,362.998 71.272,364.093 73.607 C 364.400 74.262,364.700 74.993,364.760 75.232 C 364.820 75.471,364.933 75.667,365.010 75.667 C 365.087 75.667,365.280 76.079,365.439 76.583 C 365.598 77.087,365.789 77.500,365.864 77.500 C 365.939 77.500,366.000 77.585,366.000 77.688 C 366.000 77.791,366.218 78.335,366.485 78.896 C 367.419 80.861,368.000 82.169,368.000 82.308 C 368.000 82.385,368.171 82.647,368.380 82.891 L 368.761 83.333 376.866 83.333 C 386.112 83.333,385.417 83.486,384.406 81.673 C 384.021 80.982,383.654 80.248,383.592 80.042 C 383.529 79.835,383.423 79.667,383.356 79.667 C 383.289 79.667,383.134 79.385,383.013 79.042 C 382.892 78.698,382.698 78.304,382.583 78.167 C 382.468 78.029,382.193 77.542,381.970 77.083 C 381.054 75.193,379.257 71.744,379.148 71.666 C 379.083 71.620,378.897 71.245,378.735 70.833 C 378.573 70.421,378.389 70.046,378.327 70.000 C 378.265 69.954,378.055 69.579,377.861 69.167 C 377.667 68.754,377.440 68.304,377.357 68.167 C 377.273 68.029,377.103 67.692,376.978 67.417 C 376.852 67.142,376.692 66.842,376.622 66.750 C 376.552 66.658,376.013 65.635,375.425 64.476 L 374.356 62.369 375.386 61.907 C 377.703 60.870,382.333 57.086,382.333 56.230 C 382.333 56.104,382.410 56.000,382.503 56.000 C 382.596 56.000,382.797 55.738,382.950 55.417 C 383.103 55.096,383.278 54.833,383.339 54.833 C 383.400 54.833,383.590 54.515,383.762 54.125 C 383.934 53.735,384.124 53.379,384.184 53.333 C 384.245 53.288,384.420 52.877,384.574 52.421 C 384.729 51.965,384.917 51.515,384.993 51.421 C 385.069 51.327,385.258 50.762,385.414 50.167 C 385.570 49.571,385.761 48.933,385.839 48.750 C 386.067 48.212,386.314 46.799,386.436 45.344 C 386.498 44.599,386.613 43.950,386.691 43.902 C 386.883 43.783,386.874 37.739,386.682 37.373 C 386.598 37.214,386.444 36.563,386.338 35.928 C 386.233 35.292,386.013 34.467,385.850 34.094 C 385.686 33.722,385.450 33.154,385.324 32.833 C 385.198 32.512,385.035 32.175,384.960 32.083 C 384.886 31.992,384.602 31.572,384.330 31.150 C 384.058 30.728,383.430 30.016,382.935 29.567 C 381.715 28.460,381.625 28.392,380.713 27.892 C 377.619 26.197,376.407 25.798,371.917 24.994 C 370.687 24.774,362.991 24.671,359.917 24.833 M313.417 24.952 C 312.775 24.988,312.179 25.088,312.092 25.175 C 312.005 25.262,311.621 25.333,311.238 25.333 C 310.187 25.333,305.653 25.827,305.083 26.003 C 304.808 26.089,304.152 26.203,303.625 26.258 C 302.675 26.356,302.667 26.362,302.667 26.901 C 302.667 27.200,302.610 27.501,302.542 27.569 C 302.473 27.638,302.249 29.207,302.044 31.055 C 301.311 37.651,300.893 41.087,300.793 41.333 C 300.737 41.471,300.561 43.008,300.401 44.750 C 300.241 46.492,300.062 47.954,300.002 48.000 C 299.942 48.046,299.733 49.583,299.536 51.417 C 298.822 58.082,298.404 61.587,298.304 61.750 C 298.248 61.842,298.069 63.342,297.907 65.083 C 297.746 66.825,297.564 68.287,297.504 68.333 C 297.444 68.379,297.265 69.842,297.106 71.583 C 296.947 73.325,296.753 74.900,296.675 75.083 C 296.533 75.419,295.991 80.631,295.997 81.607 C 296.001 82.269,295.890 82.236,299.250 82.581 C 300.808 82.741,302.233 82.934,302.417 83.008 C 304.143 83.711,320.144 83.708,321.750 83.004 C 321.933 82.924,322.833 82.732,323.750 82.578 C 324.667 82.424,325.642 82.198,325.917 82.076 C 326.192 81.954,326.800 81.744,327.269 81.610 C 327.737 81.475,328.262 81.289,328.435 81.195 C 328.608 81.102,329.305 80.755,329.984 80.423 C 331.863 79.506,333.920 77.781,335.359 75.917 C 335.571 75.642,335.877 75.271,336.039 75.094 C 336.201 74.916,336.333 74.709,336.333 74.634 C 336.333 74.559,336.558 74.187,336.833 73.807 C 337.108 73.427,337.333 73.015,337.333 72.892 C 337.333 72.768,337.394 72.667,337.467 72.667 C 337.541 72.667,337.741 72.273,337.912 71.792 C 338.083 71.310,338.275 70.879,338.339 70.833 C 338.481 70.731,339.000 68.689,339.000 68.231 C 339.000 68.049,339.069 67.829,339.154 67.742 C 339.815 67.063,339.835 59.664,339.180 58.250 C 339.095 58.067,338.897 57.560,338.740 57.125 C 338.583 56.690,338.398 56.333,338.329 56.333 C 338.259 56.333,338.158 56.165,338.103 55.958 C 337.815 54.880,334.760 52.060,333.290 51.516 C 333.003 51.410,333.038 51.345,333.609 50.919 C 334.497 50.257,336.128 48.512,336.376 47.958 C 336.489 47.706,336.630 47.500,336.690 47.500 C 336.835 47.500,337.740 45.586,337.990 44.750 C 338.100 44.383,338.258 43.933,338.342 43.750 C 339.168 41.939,339.216 34.719,338.412 33.167 C 338.293 32.938,338.100 32.487,337.983 32.167 C 336.906 29.216,331.978 26.149,327.250 25.486 C 326.517 25.383,325.767 25.238,325.583 25.163 C 325.400 25.088,325.137 25.014,325.000 25.000 C 324.383 24.934,314.462 24.893,313.417 24.952 M366.500 36.129 C 367.765 36.357,368.833 36.692,368.833 36.860 C 368.833 36.937,368.924 37.000,369.035 37.000 C 369.308 37.000,370.667 38.348,370.667 38.618 C 370.667 38.736,370.738 38.833,370.825 38.833 C 370.912 38.833,371.108 39.265,371.261 39.792 C 371.413 40.319,371.605 40.922,371.686 41.133 C 371.880 41.638,371.876 44.590,371.680 44.961 C 371.596 45.120,371.409 45.887,371.265 46.667 C 371.013 48.028,370.368 49.656,369.893 50.130 C 369.769 50.255,369.667 50.418,369.667 50.493 C 369.667 50.819,368.337 51.874,367.250 52.411 C 365.716 53.169,364.780 53.334,362.019 53.331 C 359.125 53.328,358.937 53.281,359.073 52.602 C 359.130 52.317,359.349 50.621,359.560 48.833 C 359.770 47.046,359.987 45.471,360.042 45.333 C 360.097 45.196,360.266 43.696,360.418 42.000 C 360.570 40.304,360.763 38.786,360.847 38.627 C 360.931 38.468,361.000 38.084,361.000 37.773 C 361.000 36.448,361.150 36.167,361.854 36.167 C 362.209 36.167,362.500 36.087,362.500 35.989 C 362.500 35.780,365.067 35.870,366.500 36.129 M68.047 36.323 C 65.357 36.458,65.593 35.853,65.535 42.756 L 65.488 48.500 59.920 48.500 L 54.352 48.500 53.884 48.902 C 53.419 49.302,53.416 49.314,53.362 51.652 C 53.330 53.059,53.242 54.000,53.143 54.000 C 52.749 54.000,53.048 59.221,53.468 59.671 L 53.852 60.083 59.968 60.083 L 66.083 60.083 67.316 59.446 C 67.994 59.096,68.655 58.702,68.786 58.571 C 68.917 58.440,69.103 58.333,69.200 58.333 C 69.782 58.333,71.982 55.401,72.264 54.250 C 72.331 53.975,72.478 53.600,72.591 53.417 C 72.704 53.233,72.884 52.805,72.992 52.466 C 73.169 51.907,73.374 51.509,74.424 49.683 C 74.603 49.371,75.294 48.546,75.958 47.851 L 77.167 46.587 77.167 41.786 L 77.167 36.985 76.758 36.576 C 76.319 36.137,73.410 36.053,68.047 36.323 M321.301 36.406 C 322.433 36.707,323.287 37.362,323.681 38.231 C 324.259 39.503,323.979 43.195,323.243 44.008 C 323.109 44.156,323.000 44.362,323.000 44.467 C 323.000 44.812,321.303 46.318,320.687 46.518 C 320.355 46.626,320.040 46.781,319.988 46.861 C 319.872 47.038,317.463 47.330,316.106 47.332 L 315.129 47.333 315.225 46.625 C 315.278 46.235,315.407 44.867,315.510 43.583 C 315.614 42.300,315.761 41.100,315.837 40.917 C 315.913 40.733,316.021 39.983,316.076 39.250 C 316.257 36.871,316.355 36.355,316.645 36.278 C 317.310 36.101,320.482 36.188,321.301 36.406 M115.917 37.446 C 115.367 37.486,114.845 37.589,114.758 37.676 C 114.671 37.762,114.409 37.833,114.175 37.832 C 113.519 37.831,110.833 38.375,110.833 38.510 C 110.833 38.576,110.552 38.681,110.208 38.743 C 109.865 38.806,109.193 39.040,108.716 39.263 C 108.240 39.486,107.658 39.741,107.425 39.830 C 107.191 39.919,107.000 40.069,107.000 40.163 C 107.000 40.256,106.901 40.333,106.780 40.333 C 106.297 40.333,102.833 43.415,102.833 43.844 C 102.833 43.917,102.737 44.075,102.619 44.196 C 102.241 44.585,101.372 46.248,101.149 47.011 C 101.030 47.417,100.880 47.788,100.815 47.834 C 100.660 47.944,100.167 50.346,100.167 50.993 C 100.167 51.272,100.092 51.500,100.000 51.500 C 99.791 51.500,99.776 54.226,99.982 54.627 C 100.064 54.786,100.223 55.317,100.335 55.806 C 100.447 56.295,100.754 57.120,101.017 57.639 C 101.280 58.159,101.497 58.677,101.498 58.792 C 101.499 58.906,101.577 59.000,101.672 59.000 C 101.766 59.000,101.892 59.131,101.951 59.292 C 102.091 59.670,103.240 60.833,103.475 60.833 C 103.574 60.833,103.735 60.983,103.833 61.167 C 103.931 61.350,104.106 61.500,104.220 61.500 C 104.335 61.500,104.689 61.722,105.006 61.993 C 105.324 62.265,105.672 62.490,105.780 62.493 C 105.888 62.497,106.075 62.594,106.196 62.709 C 106.318 62.824,106.717 63.067,107.083 63.250 C 107.450 63.434,107.787 63.625,107.833 63.676 C 107.966 63.824,110.822 65.167,111.003 65.167 C 111.093 65.167,111.167 65.225,111.167 65.297 C 111.167 65.368,111.542 65.572,112.000 65.750 C 112.458 65.928,112.833 66.122,112.833 66.181 C 112.833 66.240,113.153 66.410,113.544 66.559 C 114.858 67.061,116.833 69.228,116.833 70.167 C 116.833 70.474,116.331 71.505,115.955 71.966 C 115.179 72.921,110.664 73.537,109.291 72.875 C 109.085 72.776,108.110 72.564,107.125 72.404 C 106.140 72.244,105.333 72.060,105.333 71.995 C 105.333 71.930,104.865 71.786,104.292 71.675 C 103.719 71.565,103.028 71.365,102.757 71.233 C 102.486 71.100,101.839 70.881,101.320 70.746 C 100.800 70.612,100.159 70.389,99.895 70.252 C 99.098 69.836,98.897 69.924,98.662 70.792 C 98.545 71.227,98.393 71.658,98.325 71.750 C 98.258 71.842,98.070 72.404,97.909 73.000 C 97.747 73.596,97.559 74.158,97.492 74.250 C 97.424 74.342,97.237 74.904,97.075 75.500 C 96.914 76.096,96.726 76.658,96.659 76.750 C 96.591 76.842,96.404 77.404,96.242 78.000 C 96.080 78.596,95.892 79.158,95.824 79.250 C 95.249 80.021,95.422 81.607,96.040 81.225 C 96.110 81.182,96.167 81.223,96.167 81.317 C 96.167 81.410,96.485 81.580,96.875 81.694 C 97.265 81.807,97.621 81.949,97.667 82.009 C 97.712 82.069,98.425 82.286,99.250 82.490 C 100.075 82.695,100.881 82.931,101.042 83.016 C 101.203 83.101,102.140 83.291,103.126 83.438 C 104.111 83.585,105.067 83.774,105.250 83.857 C 106.238 84.304,116.317 84.279,116.472 83.828 C 116.503 83.739,116.720 83.667,116.956 83.667 C 117.564 83.667,120.067 83.147,120.167 83.000 C 120.212 82.933,120.691 82.750,121.231 82.594 C 122.069 82.352,123.904 81.465,124.167 81.175 C 124.212 81.124,124.460 80.975,124.716 80.843 C 125.445 80.467,127.735 78.181,128.399 77.167 C 128.729 76.662,129.076 76.157,129.171 76.044 C 129.265 75.930,129.409 75.668,129.489 75.460 C 129.620 75.126,129.650 75.163,129.756 75.792 C 129.822 76.181,129.933 76.500,130.003 76.500 C 130.073 76.500,130.177 76.755,130.236 77.066 C 130.294 77.378,130.473 77.809,130.634 78.025 C 130.794 78.240,131.036 78.636,131.171 78.904 C 131.818 80.187,134.165 81.988,136.000 82.607 C 136.504 82.777,136.954 82.966,137.001 83.027 C 137.120 83.183,139.660 83.823,141.333 84.119 C 144.168 84.619,156.263 84.377,156.472 83.816 C 156.503 83.734,156.718 83.667,156.952 83.667 C 157.597 83.667,160.572 83.139,160.667 83.008 C 160.712 82.944,161.387 82.758,162.167 82.593 C 162.946 82.429,163.883 82.165,164.250 82.005 C 164.617 81.846,165.273 81.620,165.708 81.503 C 166.144 81.386,166.500 81.225,166.500 81.145 C 166.500 81.065,166.603 81.000,166.729 81.000 C 166.975 81.000,167.084 80.400,167.269 78.000 C 167.329 77.221,167.434 76.508,167.501 76.417 C 167.569 76.325,167.760 74.787,167.926 73.000 C 168.091 71.212,168.275 69.712,168.335 69.667 C 168.394 69.621,168.574 68.121,168.734 66.333 C 168.895 64.546,169.091 62.933,169.171 62.750 C 169.251 62.567,169.438 61.029,169.586 59.333 C 169.734 57.637,169.944 56.070,170.053 55.850 C 170.323 55.302,170.330 47.318,170.061 46.984 C 169.957 46.855,169.786 46.337,169.680 45.833 C 169.511 45.027,168.739 43.288,168.319 42.767 C 166.576 40.604,165.664 39.838,163.833 38.996 C 163.421 38.807,162.958 38.583,162.805 38.499 C 162.651 38.415,161.864 38.221,161.055 38.067 C 160.245 37.913,159.403 37.704,159.183 37.602 C 158.597 37.331,150.077 37.357,149.803 37.630 C 149.691 37.742,149.352 37.833,149.048 37.833 C 148.304 37.833,145.332 38.304,144.917 38.488 C 144.733 38.569,143.946 38.764,143.167 38.921 C 142.387 39.078,141.674 39.267,141.580 39.341 C 141.487 39.416,140.887 39.607,140.247 39.766 C 139.607 39.925,139.046 40.107,139.000 40.172 C 138.954 40.236,138.485 40.414,137.958 40.566 C 137.323 40.749,137.000 40.930,137.000 41.101 C 137.000 41.969,137.373 45.473,137.496 45.750 C 137.613 46.016,138.003 49.910,138.000 50.792 C 138.000 51.111,139.991 50.814,141.083 50.331 C 142.875 49.539,150.597 48.991,152.500 49.520 C 155.201 50.272,155.705 51.287,155.329 55.212 L 155.124 57.341 154.521 57.232 C 154.188 57.172,153.837 57.060,153.739 56.983 C 152.912 56.332,142.642 56.338,141.750 56.990 C 141.658 57.057,141.133 57.207,140.583 57.324 C 140.033 57.441,139.396 57.632,139.167 57.749 C 138.938 57.865,138.094 58.286,137.292 58.684 C 136.490 59.082,135.833 59.461,135.833 59.526 C 135.833 59.591,135.681 59.693,135.495 59.752 C 135.308 59.811,134.952 60.049,134.703 60.281 C 134.454 60.513,134.137 60.788,133.999 60.893 C 133.516 61.259,132.328 62.805,131.685 63.907 L 131.036 65.017 130.591 63.852 C 130.346 63.212,130.094 62.664,130.031 62.635 C 129.968 62.607,129.709 62.305,129.454 61.964 C 128.994 61.348,126.627 59.410,125.833 58.999 C 125.604 58.880,125.379 58.737,125.333 58.679 C 125.192 58.502,122.429 57.164,122.208 57.165 C 122.094 57.166,122.000 57.106,122.000 57.033 C 122.000 56.959,121.606 56.759,121.125 56.588 C 120.644 56.417,120.100 56.184,119.917 56.070 C 119.733 55.956,119.264 55.769,118.873 55.654 C 118.482 55.540,118.079 55.346,117.978 55.223 C 117.876 55.100,117.688 55.000,117.561 55.000 C 117.237 55.000,116.630 54.639,116.368 54.292 C 116.247 54.131,116.070 54.000,115.974 54.000 C 115.430 54.000,114.500 52.569,114.500 51.731 C 114.500 50.132,115.485 49.266,117.610 48.997 C 118.888 48.835,122.105 49.042,122.750 49.328 C 122.933 49.409,123.833 49.643,124.750 49.849 C 125.667 50.054,126.492 50.275,126.583 50.341 C 126.675 50.406,127.200 50.589,127.750 50.746 C 128.300 50.904,128.787 51.083,128.833 51.145 C 129.278 51.741,130.466 51.784,130.603 51.208 C 130.663 50.956,130.773 50.673,130.846 50.579 C 130.919 50.485,131.106 49.847,131.261 49.162 C 131.416 48.477,131.594 47.879,131.657 47.833 C 131.721 47.788,131.910 47.150,132.079 46.417 C 132.248 45.683,132.438 45.046,132.501 45.000 C 132.564 44.954,132.750 44.354,132.914 43.667 C 133.078 42.979,133.273 42.339,133.348 42.243 C 133.616 41.900,133.850 40.471,133.674 40.258 C 133.580 40.146,133.034 39.914,132.460 39.743 C 131.886 39.572,131.379 39.385,131.333 39.327 C 131.251 39.222,129.430 38.682,127.694 38.246 C 127.205 38.124,126.305 37.972,125.694 37.908 C 125.083 37.845,124.490 37.718,124.375 37.626 C 124.159 37.453,117.713 37.315,115.917 37.446 M278.458 37.456 C 277.565 37.487,276.833 37.584,276.833 37.673 C 276.833 37.761,276.568 37.833,276.243 37.833 C 275.566 37.833,273.247 38.272,272.750 38.494 C 272.567 38.576,272.004 38.772,271.500 38.929 C 270.996 39.087,270.546 39.265,270.500 39.325 C 270.454 39.385,270.060 39.567,269.625 39.731 C 269.190 39.894,268.833 40.082,268.833 40.148 C 268.833 40.215,268.524 40.406,268.145 40.573 C 267.767 40.740,267.335 40.981,267.187 41.109 C 267.038 41.237,266.430 41.732,265.836 42.209 C 265.242 42.686,264.530 43.336,264.253 43.654 C 263.976 43.971,263.525 44.472,263.250 44.767 C 262.240 45.851,261.243 47.327,260.393 49.000 C 260.230 49.321,260.012 49.696,259.909 49.833 C 259.806 49.971,259.620 50.346,259.495 50.667 C 259.371 50.987,259.223 51.288,259.168 51.333 C 259.041 51.438,258.500 53.130,258.500 53.422 C 258.500 53.541,258.432 53.664,258.350 53.694 C 258.189 53.754,257.622 56.057,257.228 58.250 C 256.642 61.514,256.815 71.382,257.474 72.231 C 257.554 72.333,257.708 72.785,257.818 73.235 C 257.928 73.684,258.239 74.525,258.509 75.103 C 258.779 75.680,259.000 76.231,259.000 76.326 C 259.000 76.422,259.061 76.500,259.136 76.500 C 259.210 76.500,259.397 76.762,259.550 77.083 C 259.703 77.404,259.904 77.667,259.997 77.667 C 260.090 77.667,260.167 77.762,260.167 77.879 C 260.167 78.229,263.678 81.500,264.053 81.500 C 264.109 81.500,264.503 81.721,264.929 81.991 C 265.354 82.261,265.938 82.532,266.226 82.593 C 266.514 82.654,267.055 82.842,267.428 83.009 C 267.800 83.177,268.625 83.408,269.261 83.522 C 269.897 83.637,270.454 83.782,270.500 83.845 C 270.926 84.430,281.576 84.433,282.917 83.848 C 283.100 83.768,284.150 83.577,285.250 83.424 C 286.350 83.270,287.275 83.075,287.306 82.989 C 287.336 82.903,287.537 82.833,287.751 82.833 C 288.259 82.833,291.200 82.164,291.417 81.999 C 291.508 81.929,291.816 81.822,292.099 81.762 L 292.615 81.651 292.724 79.133 C 292.784 77.747,292.833 75.313,292.833 73.724 C 292.833 70.560,292.835 70.565,291.859 71.070 C 291.608 71.200,290.918 71.428,290.326 71.576 C 289.734 71.724,289.100 71.915,288.917 72.001 C 288.521 72.186,285.296 72.667,284.447 72.667 C 284.120 72.667,283.807 72.742,283.750 72.833 C 283.621 73.042,277.724 73.061,277.595 72.853 C 277.545 72.772,277.110 72.654,276.627 72.591 C 276.145 72.528,275.487 72.336,275.167 72.164 C 274.846 71.992,274.406 71.771,274.189 71.673 C 272.174 70.758,271.167 68.388,271.167 64.561 L 271.167 62.500 283.063 62.500 C 292.385 62.500,294.993 62.455,295.116 62.292 C 295.479 61.807,296.379 58.687,296.833 56.333 C 297.265 54.093,297.146 48.422,296.656 47.925 C 296.570 47.838,296.500 47.640,296.500 47.486 C 296.500 47.146,295.974 45.450,295.832 45.333 C 295.777 45.288,295.625 44.987,295.496 44.667 C 294.772 42.867,291.798 39.667,290.849 39.667 C 290.762 39.667,290.585 39.561,290.457 39.433 C 290.237 39.213,289.819 39.043,287.730 38.325 C 287.260 38.163,286.360 37.977,285.730 37.912 C 285.099 37.846,284.471 37.737,284.333 37.669 C 284.011 37.510,280.554 37.385,278.458 37.456 M175.260 38.542 C 175.145 39.088,175.048 39.861,174.614 43.667 C 174.399 45.546,174.178 47.196,174.122 47.333 C 174.066 47.471,173.867 49.008,173.679 50.750 C 172.909 57.886,172.568 60.759,172.471 60.917 C 172.416 61.008,172.245 62.471,172.093 64.167 C 171.941 65.862,171.746 67.380,171.658 67.539 C 171.470 67.884,171.442 73.000,171.629 73.000 C 171.700 73.000,171.850 73.575,171.961 74.278 C 172.073 74.981,172.263 75.712,172.384 75.903 C 172.504 76.094,172.736 76.606,172.899 77.042 C 173.061 77.477,173.247 77.833,173.311 77.833 C 173.376 77.833,173.564 78.064,173.730 78.345 C 174.050 78.886,175.177 79.984,176.056 80.612 C 176.346 80.819,176.658 81.049,176.750 81.124 C 177.263 81.543,178.920 82.349,179.769 82.592 C 180.309 82.747,180.825 82.930,180.917 82.999 C 181.160 83.183,183.966 83.667,184.782 83.667 C 185.166 83.667,185.527 83.742,185.583 83.833 C 185.710 84.037,190.775 84.062,190.901 83.859 C 190.949 83.782,191.872 83.673,192.952 83.619 C 195.228 83.504,197.935 83.201,198.417 83.008 C 198.600 82.934,199.725 82.706,200.917 82.500 C 202.108 82.294,203.121 82.075,203.167 82.012 C 203.213 81.950,203.887 81.764,204.667 81.600 C 205.446 81.436,206.158 81.241,206.250 81.168 C 206.342 81.095,206.829 80.923,207.333 80.787 C 208.175 80.559,209.978 79.912,210.090 79.798 C 210.116 79.772,210.264 78.438,210.419 76.833 C 210.573 75.229,210.764 73.767,210.842 73.583 C 210.920 73.400,211.112 71.825,211.269 70.083 C 211.425 68.342,211.604 66.879,211.665 66.833 C 211.727 66.787,211.908 65.325,212.068 63.583 C 212.227 61.842,212.404 60.304,212.460 60.167 C 212.555 59.933,212.735 58.475,213.725 49.917 C 213.937 48.083,214.156 46.471,214.212 46.333 C 214.268 46.196,214.435 44.733,214.583 43.083 C 214.732 41.433,214.924 39.953,215.010 39.794 C 215.096 39.635,215.167 39.204,215.167 38.836 L 215.167 38.167 207.833 38.167 C 203.800 38.167,200.493 38.185,200.484 38.208 C 200.451 38.297,199.986 42.067,199.616 45.250 C 199.403 47.083,199.182 48.696,199.126 48.833 C 199.070 48.971,198.894 50.508,198.734 52.250 C 198.575 53.992,198.395 55.454,198.336 55.500 C 198.276 55.546,198.066 57.083,197.868 58.917 C 197.670 60.750,197.320 63.788,197.089 65.667 C 196.859 67.546,196.584 69.796,196.479 70.667 C 196.373 71.537,196.278 72.263,196.268 72.278 C 196.198 72.384,193.288 72.681,192.069 72.706 C 189.573 72.758,187.856 72.026,186.891 70.500 C 186.397 69.718,186.183 65.801,186.586 64.903 C 186.665 64.727,186.903 63.121,187.114 61.333 C 188.060 53.316,188.281 51.568,188.374 51.333 C 188.428 51.196,188.598 49.733,188.750 48.083 C 188.903 46.433,189.090 44.933,189.165 44.750 C 189.294 44.439,189.842 39.369,189.836 38.542 L 189.833 38.167 182.587 38.167 L 175.340 38.167 175.260 38.542 M282.297 48.245 C 283.923 49.136,284.876 51.505,284.562 53.873 L 284.457 54.667 278.562 54.667 C 275.320 54.667,272.668 54.610,272.669 54.542 C 272.714 52.242,274.920 48.946,276.946 48.149 C 278.166 47.670,281.350 47.726,282.297 48.245 M76.087 48.952 C 75.676 49.391,75.338 49.801,75.336 49.863 C 75.335 49.925,75.225 50.084,75.093 50.217 C 74.751 50.559,73.923 52.130,73.671 52.917 C 73.553 53.283,73.401 53.658,73.333 53.750 C 73.266 53.842,73.114 54.217,72.997 54.583 C 72.780 55.264,71.931 56.869,71.546 57.328 C 71.123 57.833,69.887 59.088,69.572 59.334 C 69.065 59.729,67.566 60.667,67.442 60.667 C 67.380 60.667,67.012 60.809,66.623 60.982 C 66.235 61.155,65.785 61.341,65.625 61.393 C 65.356 61.482,65.333 61.876,65.333 66.502 L 65.333 71.515 65.742 71.924 L 66.152 72.333 71.201 72.330 L 76.250 72.328 76.667 71.889 L 77.083 71.450 77.131 65.815 L 77.179 60.179 82.838 60.131 L 88.497 60.083 88.915 59.632 L 89.333 59.181 89.333 54.216 L 89.333 49.250 88.903 48.750 L 88.473 48.250 82.654 48.202 L 76.836 48.154 76.087 48.952 M239.405 48.496 C 239.686 48.585,240.348 48.703,240.875 48.758 C 241.751 48.849,241.833 48.892,241.833 49.262 C 241.833 49.485,241.772 49.667,241.696 49.667 C 241.621 49.667,241.428 51.148,241.268 52.958 C 241.109 54.769,240.910 56.460,240.828 56.716 C 240.746 56.973,240.549 58.585,240.392 60.300 C 240.234 62.014,240.058 63.454,240.000 63.500 C 239.942 63.546,239.737 65.083,239.545 66.917 C 239.352 68.750,239.154 70.438,239.104 70.667 C 239.055 70.896,238.969 71.440,238.913 71.875 C 238.827 72.554,238.760 72.667,238.440 72.667 C 238.235 72.667,237.982 72.751,237.880 72.854 C 237.623 73.110,234.008 73.141,233.485 72.892 C 233.264 72.786,232.837 72.608,232.536 72.494 C 231.184 71.985,229.852 70.345,229.496 68.750 C 229.393 68.292,229.246 67.767,229.168 67.583 C 228.626 66.307,229.345 57.774,230.015 57.528 C 230.098 57.497,230.167 57.354,230.167 57.209 C 230.167 56.818,230.725 55.092,230.873 55.028 C 230.943 54.997,231.000 54.869,231.000 54.743 C 231.000 53.112,234.395 49.320,236.274 48.852 C 236.719 48.741,237.271 48.587,237.500 48.509 C 238.088 48.311,238.807 48.306,239.405 48.496 M29.000 57.675 C 27.088 57.867,22.924 58.554,21.083 58.980 C 19.505 59.346,18.673 59.585,15.417 60.610 C 14.317 60.956,13.360 61.223,13.292 61.203 C 13.119 61.153,13.135 61.788,13.321 62.405 C 13.407 62.686,13.590 63.830,13.729 64.947 C 13.869 66.063,14.057 67.113,14.148 67.280 C 14.239 67.447,14.442 68.146,14.599 68.833 C 14.756 69.521,14.935 70.121,14.997 70.167 C 15.058 70.212,15.242 70.662,15.405 71.167 C 15.567 71.671,15.749 72.121,15.808 72.167 C 15.868 72.212,16.085 72.587,16.291 73.000 C 16.962 74.344,17.781 75.629,18.321 76.187 C 18.545 76.418,19.579 77.654,19.833 77.996 C 20.096 78.348,22.421 80.167,22.609 80.167 C 22.732 80.167,22.833 80.238,22.833 80.326 C 22.833 80.413,23.115 80.615,23.458 80.775 C 23.802 80.935,24.121 81.120,24.167 81.185 C 24.282 81.347,27.100 82.667,27.332 82.667 C 27.435 82.667,27.833 82.808,28.217 82.982 C 28.602 83.155,29.367 83.392,29.917 83.509 C 30.467 83.626,30.992 83.779,31.085 83.848 C 31.302 84.011,34.588 84.500,35.466 84.500 C 35.836 84.500,36.167 84.585,36.202 84.689 C 36.285 84.939,45.723 84.962,46.036 84.714 C 46.154 84.621,46.962 84.493,47.833 84.431 C 50.444 84.243,50.169 84.687,50.153 80.690 C 50.145 78.798,50.077 76.837,50.002 76.333 C 49.784 74.863,49.182 72.293,48.929 71.750 C 48.801 71.475,48.613 70.934,48.510 70.549 C 48.408 70.163,48.251 69.802,48.162 69.747 C 48.073 69.692,48.000 69.501,48.000 69.323 C 48.000 69.019,47.862 68.999,45.708 68.990 C 40.222 68.966,35.834 66.913,34.584 63.786 C 34.430 63.400,34.242 63.008,34.167 62.917 C 33.964 62.670,33.523 60.385,33.477 59.342 C 33.419 58.016,33.213 57.670,32.482 57.668 C 32.151 57.667,31.551 57.637,31.148 57.600 C 30.746 57.563,29.779 57.597,29.000 57.675 M320.264 58.257 C 321.076 58.399,321.779 58.578,321.828 58.655 C 321.877 58.733,322.184 58.907,322.510 59.043 C 323.271 59.360,324.282 60.540,324.536 61.408 C 324.948 62.819,324.660 66.476,324.082 67.167 C 323.967 67.304,323.819 67.594,323.753 67.810 C 323.453 68.793,321.416 70.443,320.000 70.851 C 319.587 70.970,319.198 71.144,319.134 71.237 C 318.982 71.460,312.333 71.600,312.333 71.381 C 312.333 71.293,312.390 71.166,312.458 71.098 C 312.527 71.030,312.755 69.274,312.965 67.195 C 313.175 65.117,313.471 62.198,313.623 60.708 L 313.899 58.000 316.344 58.000 C 317.800 58.000,319.386 58.104,320.264 58.257 M152.403 65.011 C 154.098 65.309,154.038 65.148,153.714 68.516 C 153.561 70.111,153.386 71.454,153.326 71.500 C 153.265 71.546,153.163 72.183,153.099 72.917 C 153.034 73.650,152.889 74.344,152.776 74.459 C 152.200 75.044,146.549 75.099,146.178 74.524 C 146.126 74.444,145.920 74.327,145.720 74.265 C 145.184 74.098,144.197 73.014,143.979 72.353 C 143.778 71.744,143.894 69.345,144.133 69.176 C 144.205 69.125,144.366 68.767,144.490 68.380 C 145.364 65.666,148.508 64.328,152.403 65.011 M225.667 97.269 C 224.519 98.152,224.277 98.333,223.924 98.574 C 223.643 98.765,223.620 98.882,223.758 99.438 C 223.954 100.231,224.276 100.313,225.113 99.786 C 225.464 99.566,226.181 99.133,226.708 98.824 C 227.778 98.198,227.778 98.197,227.385 97.306 C 227.030 96.502,226.674 96.494,225.667 97.269 M96.000 97.180 C 95.862 97.254,95.476 97.359,95.140 97.412 C 94.516 97.512,93.500 98.360,93.500 98.782 C 93.500 98.902,93.428 99.000,93.341 99.000 C 93.253 99.000,93.136 99.281,93.080 99.625 C 92.810 101.277,92.888 101.167,91.987 101.167 C 91.402 101.167,91.167 101.232,91.167 101.396 C 91.167 101.522,91.120 101.859,91.063 102.146 L 90.958 102.667 91.829 102.667 L 92.700 102.667 92.603 103.375 C 92.550 103.765,92.335 105.621,92.127 107.500 C 91.918 109.379,91.702 110.992,91.645 111.083 C 91.589 111.175,91.491 111.794,91.428 112.458 L 91.313 113.667 92.204 113.667 L 93.094 113.667 93.290 112.958 C 93.398 112.569,93.608 110.900,93.758 109.250 C 93.907 107.600,94.091 106.130,94.167 105.984 C 94.242 105.837,94.358 105.031,94.424 104.192 L 94.543 102.667 95.855 102.667 C 96.857 102.667,97.167 102.613,97.167 102.438 C 97.167 102.311,97.214 101.974,97.271 101.688 L 97.375 101.167 96.054 101.167 L 94.734 101.167 94.802 100.583 C 94.839 100.263,94.937 100.000,95.018 100.000 C 95.100 100.000,95.167 99.899,95.167 99.776 C 95.167 99.104,96.421 98.767,97.791 99.072 C 98.273 99.180,98.350 99.145,98.499 98.752 C 98.839 97.857,98.726 97.525,98.042 97.415 C 97.698 97.359,97.229 97.269,97.000 97.214 C 96.771 97.159,96.508 97.099,96.417 97.079 C 96.325 97.060,96.138 97.105,96.000 97.180 M168.588 97.542 C 168.550 97.656,168.476 98.125,168.422 98.583 C 168.368 99.042,168.282 99.769,168.230 100.200 L 168.136 100.984 166.499 100.978 C 164.105 100.970,162.524 101.988,161.966 103.898 C 161.856 104.275,161.691 104.635,161.598 104.698 C 161.362 104.860,161.363 108.976,161.600 109.131 C 161.701 109.196,161.869 109.413,161.974 109.612 C 162.412 110.444,163.844 110.891,165.716 110.779 C 167.592 110.668,167.935 110.621,168.106 110.449 C 168.170 110.386,168.350 110.333,168.507 110.333 C 168.818 110.333,169.000 109.722,169.000 108.679 C 169.000 108.342,169.065 107.995,169.145 107.908 C 169.225 107.821,169.424 106.287,169.587 104.500 C 169.751 102.712,169.939 101.175,170.005 101.083 C 170.072 100.992,170.176 100.317,170.237 99.583 C 170.298 98.850,170.388 98.044,170.437 97.792 C 170.536 97.284,168.751 97.042,168.588 97.542 M240.255 97.542 C 240.217 97.656,240.142 98.125,240.089 98.583 C 240.035 99.042,239.949 99.769,239.897 100.200 L 239.802 100.984 238.166 100.978 C 235.810 100.970,234.386 101.824,233.744 103.630 C 233.591 104.063,233.379 104.597,233.274 104.817 C 233.024 105.342,233.018 108.969,233.267 109.131 C 233.368 109.196,233.536 109.413,233.641 109.612 C 234.079 110.444,235.511 110.891,237.383 110.779 C 239.259 110.668,239.602 110.621,239.773 110.449 C 239.837 110.386,240.017 110.333,240.174 110.333 C 240.485 110.333,240.667 109.722,240.667 108.679 C 240.667 108.342,240.732 107.995,240.812 107.908 C 240.892 107.821,241.091 106.287,241.254 104.500 C 241.417 102.712,241.605 101.175,241.672 101.083 C 241.739 100.992,241.843 100.317,241.904 99.583 C 241.965 98.850,242.055 98.044,242.104 97.792 C 242.203 97.284,240.418 97.042,240.255 97.542 M49.020 97.875 C 48.943 98.081,48.790 99.337,48.678 100.667 C 48.566 101.996,48.410 103.233,48.331 103.417 C 48.113 103.923,47.644 109.098,47.768 109.623 C 48.028 110.723,49.027 111.086,50.813 110.729 C 51.310 110.630,51.333 110.588,51.333 109.820 L 51.333 109.016 50.476 109.117 L 49.618 109.219 49.740 107.234 C 49.807 106.143,49.921 105.175,49.993 105.083 C 50.065 104.992,50.250 103.492,50.405 101.750 C 50.559 100.008,50.745 98.433,50.817 98.250 C 51.047 97.672,50.856 97.500,49.982 97.500 C 49.280 97.500,49.138 97.555,49.020 97.875 M313.773 98.273 C 313.561 99.821,313.566 99.833,314.490 99.833 C 315.461 99.833,315.429 99.870,315.581 98.542 L 315.699 97.500 314.789 97.500 L 313.879 97.500 313.773 98.273 M321.445 97.625 C 321.404 97.694,321.281 98.725,321.172 99.917 C 321.063 101.108,320.931 102.196,320.878 102.333 C 320.671 102.877,320.168 107.689,320.167 109.133 C 320.166 110.405,320.624 110.833,321.982 110.833 C 323.540 110.833,323.833 110.662,323.833 109.748 L 323.833 108.989 323.021 109.096 C 322.478 109.168,322.170 109.140,322.090 109.010 C 321.949 108.782,322.294 104.736,322.496 104.250 C 322.616 103.961,323.174 98.600,323.169 97.792 C 323.167 97.488,321.616 97.339,321.445 97.625 M341.833 97.917 C 341.833 98.146,341.758 98.333,341.667 98.333 C 341.575 98.333,341.500 98.671,341.500 99.083 L 341.500 99.833 342.407 99.833 C 343.466 99.833,343.424 99.881,343.570 98.542 L 343.683 97.500 342.758 97.500 C 341.883 97.500,341.833 97.522,341.833 97.917 M198.250 98.000 C 198.193 98.092,198.004 98.167,197.829 98.167 C 196.678 98.167,195.167 99.590,195.167 100.675 C 195.167 100.854,195.092 101.000,195.000 101.000 C 194.024 101.000,195.485 104.065,196.625 104.409 C 196.831 104.471,197.000 104.581,197.000 104.652 C 197.000 104.722,197.450 104.917,198.000 105.083 C 198.550 105.250,199.000 105.432,199.000 105.488 C 199.000 105.545,199.262 105.732,199.583 105.905 C 200.602 106.453,200.301 108.082,199.059 108.752 C 198.459 109.074,196.383 109.166,196.184 108.879 C 196.087 108.739,194.875 108.333,194.553 108.333 C 194.349 108.333,193.833 109.412,193.833 109.839 C 193.833 110.019,193.927 110.167,194.042 110.168 C 194.156 110.168,194.475 110.296,194.750 110.451 C 195.324 110.776,199.248 110.886,199.464 110.583 C 199.530 110.492,199.948 110.233,200.394 110.009 C 200.839 109.784,201.283 109.428,201.379 109.217 C 201.475 109.006,201.613 108.833,201.686 108.833 C 201.898 108.833,202.165 107.657,202.166 106.719 C 202.167 105.167,201.779 104.626,200.040 103.760 C 197.438 102.465,197.246 102.345,197.096 101.936 C 196.847 101.259,197.254 100.279,197.891 100.023 C 198.180 99.907,198.547 99.741,198.706 99.656 C 199.065 99.463,199.879 99.453,200.092 99.639 C 200.179 99.715,200.577 99.870,200.976 99.984 C 201.375 100.097,201.806 100.231,201.934 100.280 C 202.081 100.336,202.167 100.256,202.168 100.059 C 202.168 99.889,202.276 99.544,202.407 99.293 C 202.710 98.712,202.444 98.392,201.536 98.247 C 201.196 98.193,200.786 98.078,200.627 97.991 C 200.242 97.781,198.381 97.788,198.250 98.000 M35.814 98.277 C 35.528 98.354,35.443 98.827,35.233 101.500 C 35.172 102.279,35.068 102.992,35.002 103.083 C 34.936 103.175,34.746 104.712,34.580 106.500 C 34.415 108.287,34.209 109.796,34.123 109.853 C 33.603 110.197,34.112 110.583,35.086 110.583 L 36.083 110.583 36.317 108.226 L 36.550 105.868 38.400 105.788 C 41.303 105.664,43.167 104.407,43.167 102.574 C 43.167 102.361,43.242 102.140,43.333 102.083 C 43.425 102.027,43.500 101.610,43.500 101.157 C 43.500 100.704,43.425 100.333,43.333 100.333 C 43.242 100.333,43.167 100.186,43.167 100.006 C 43.167 99.500,42.212 98.528,41.528 98.338 C 40.944 98.176,36.376 98.127,35.814 98.277 M267.655 98.283 C 267.229 98.349,266.833 100.450,266.833 102.644 C 266.833 102.931,266.772 103.167,266.697 103.167 C 266.622 103.167,266.424 104.668,266.258 106.504 C 266.092 108.339,265.890 109.881,265.811 109.930 C 265.558 110.087,265.655 110.291,266.042 110.414 C 266.248 110.480,266.567 110.581,266.750 110.639 C 267.517 110.881,271.235 110.740,271.750 110.450 C 272.025 110.295,272.347 110.168,272.465 110.168 C 272.657 110.167,273.552 109.325,274.134 108.599 C 275.015 107.500,274.462 104.000,273.408 104.000 C 273.090 104.000,273.104 103.887,273.470 103.494 C 275.085 101.761,274.735 98.859,272.848 98.335 C 272.281 98.177,268.573 98.141,267.655 98.283 M70.041 99.331 C 69.927 99.696,69.833 100.258,69.833 100.581 C 69.833 101.136,69.803 101.167,69.268 101.167 C 68.654 101.167,68.500 101.370,68.500 102.180 C 68.500 102.618,68.554 102.667,69.042 102.667 L 69.583 102.667 69.406 104.375 C 69.309 105.315,69.168 106.219,69.093 106.385 C 69.018 106.550,68.948 107.392,68.937 108.254 C 68.909 110.432,69.201 110.750,71.229 110.750 C 72.878 110.750,73.167 110.584,73.167 109.634 L 73.167 108.976 72.268 109.088 C 70.889 109.261,70.042 108.502,70.792 107.766 C 70.860 107.699,71.029 106.542,71.167 105.197 L 71.417 102.750 72.855 102.702 L 74.294 102.654 74.397 102.140 C 74.594 101.155,74.610 101.167,73.113 101.167 L 71.726 101.167 71.851 100.292 C 72.089 98.617,72.112 98.667,71.124 98.667 C 70.248 98.667,70.248 98.667,70.041 99.331 M39.267 99.653 C 39.533 99.737,39.958 99.851,40.213 99.907 C 41.995 100.298,41.627 103.238,39.697 104.012 C 39.485 104.097,38.761 104.167,38.088 104.167 L 36.865 104.167 36.934 103.542 C 36.972 103.198,37.069 102.256,37.150 101.449 C 37.313 99.818,37.296 99.862,37.797 99.786 C 37.996 99.756,38.210 99.679,38.273 99.615 C 38.429 99.460,38.689 99.470,39.267 99.653 M272.309 100.333 C 272.648 100.740,272.796 101.500,272.537 101.500 C 272.465 101.500,272.324 101.719,272.223 101.987 C 271.963 102.674,270.878 103.167,269.621 103.167 L 268.637 103.167 268.728 102.542 C 268.779 102.198,268.868 101.441,268.928 100.859 L 269.036 99.802 270.500 99.859 C 271.821 99.911,271.996 99.957,272.309 100.333 M104.423 101.016 C 103.876 101.079,103.401 101.213,103.367 101.315 C 103.333 101.417,103.208 101.500,103.090 101.500 C 102.392 101.500,101.000 103.605,101.000 104.659 C 101.000 104.831,100.921 104.998,100.825 105.030 C 100.584 105.111,100.530 108.644,100.768 108.799 C 100.867 108.864,100.999 109.123,101.061 109.375 C 101.576 111.481,107.921 111.074,107.995 108.930 C 107.998 108.845,108.114 108.650,108.254 108.496 C 109.097 107.564,109.233 103.139,108.450 102.112 C 107.696 101.124,106.448 100.784,104.423 101.016 M127.486 100.896 C 127.448 100.931,126.971 101.006,126.426 101.064 C 125.881 101.121,125.393 101.236,125.342 101.319 C 125.291 101.402,124.967 101.522,124.623 101.587 C 123.817 101.738,123.833 101.703,123.639 103.800 C 123.548 104.781,123.410 105.733,123.333 105.917 C 123.212 106.206,122.833 109.591,122.833 110.385 C 122.833 110.614,122.999 110.667,123.727 110.667 L 124.621 110.667 124.727 109.893 C 124.786 109.468,124.833 108.905,124.833 108.641 C 124.833 108.378,124.905 108.032,124.992 107.873 C 125.079 107.714,125.237 106.599,125.344 105.396 C 125.584 102.684,125.510 102.797,127.120 102.704 C 129.214 102.582,129.193 102.519,128.683 107.500 C 128.338 110.864,128.303 110.667,129.254 110.667 C 130.215 110.667,130.245 110.594,130.496 107.667 C 130.610 106.337,130.757 105.175,130.822 105.083 C 130.888 104.992,130.959 104.579,130.980 104.167 C 131.052 102.770,131.169 102.673,132.803 102.669 C 134.376 102.665,134.590 102.994,134.321 105.004 C 133.489 111.227,133.466 110.667,134.561 110.667 L 135.455 110.667 135.561 109.893 C 135.619 109.468,135.667 108.873,135.667 108.570 C 135.667 108.267,135.731 107.980,135.810 107.931 C 136.021 107.801,136.396 103.305,136.258 102.565 C 135.977 101.067,132.517 100.237,131.083 101.322 C 130.697 101.614,130.328 101.637,130.075 101.385 C 129.723 101.032,127.748 100.660,127.486 100.896 M304.508 101.015 C 304.100 101.095,303.703 101.275,303.625 101.414 C 303.547 101.553,303.377 101.667,303.248 101.667 C 303.118 101.667,302.922 101.834,302.813 102.038 C 302.704 102.243,302.513 102.510,302.390 102.633 C 301.436 103.588,302.366 105.659,304.083 106.404 C 306.034 107.250,306.359 107.718,305.553 108.524 C 305.002 109.075,303.117 109.292,302.835 108.836 C 302.457 108.224,301.556 108.455,301.342 109.219 C 301.122 110.003,301.193 110.333,301.579 110.333 C 301.704 110.333,301.837 110.427,301.875 110.542 C 302.028 110.999,305.493 110.813,306.224 110.307 C 307.233 109.610,307.727 108.754,307.803 107.570 L 307.869 106.556 307.161 105.950 C 306.772 105.617,306.085 105.222,305.635 105.073 C 304.749 104.779,304.000 104.152,304.000 103.706 C 304.000 102.794,306.085 102.304,307.190 102.957 C 307.756 103.291,307.916 103.160,308.098 102.214 C 308.311 101.112,306.722 100.581,304.508 101.015 M59.375 101.109 C 59.169 101.153,59.000 101.252,59.000 101.327 C 59.000 101.402,58.814 101.511,58.587 101.568 C 56.783 102.020,55.441 106.032,56.184 108.750 C 56.647 110.442,58.650 111.223,60.792 110.548 C 61.646 110.279,61.706 110.279,61.857 110.548 C 62.041 110.877,63.467 110.952,64.011 110.661 C 64.545 110.375,64.469 109.167,63.917 109.167 C 63.574 109.167,63.500 109.086,63.500 108.712 C 63.500 107.660,64.028 102.893,64.174 102.627 C 64.441 102.142,64.360 101.643,64.000 101.548 C 63.817 101.500,63.667 101.407,63.667 101.342 C 63.667 101.145,60.104 100.952,59.375 101.109 M81.397 101.370 C 79.399 102.261,78.500 104.021,78.500 107.045 C 78.500 110.065,80.468 111.533,83.203 110.553 C 83.950 110.285,84.005 110.286,84.322 110.574 C 84.727 110.939,86.432 110.875,86.679 110.485 C 87.028 109.935,86.860 109.192,86.375 109.136 C 86.123 109.107,85.928 109.008,85.941 108.917 C 85.955 108.825,86.091 107.362,86.244 105.667 C 86.397 103.971,86.601 102.422,86.697 102.224 C 86.892 101.826,86.767 101.500,86.421 101.500 C 86.296 101.500,86.166 101.416,86.132 101.313 C 85.996 100.904,82.345 100.948,81.397 101.370 M117.208 101.114 C 117.002 101.156,116.833 101.251,116.833 101.325 C 116.833 101.400,116.683 101.500,116.500 101.548 C 116.283 101.605,116.167 101.553,116.167 101.401 C 116.167 101.232,115.941 101.167,115.351 101.167 C 114.429 101.167,114.333 101.282,114.333 102.403 C 114.333 102.792,114.281 103.163,114.217 103.227 C 114.069 103.375,114.073 103.347,113.727 106.951 C 113.566 108.628,113.371 110.000,113.294 110.000 C 113.218 110.000,113.235 110.150,113.333 110.333 C 113.541 110.721,114.884 110.816,115.115 110.458 C 115.230 110.281,115.429 108.780,115.940 104.250 C 116.075 103.055,116.405 102.804,117.842 102.804 C 118.824 102.804,119.000 102.761,119.000 102.519 C 119.000 102.362,119.081 102.152,119.181 102.053 C 119.870 101.363,118.709 100.810,117.208 101.114 M145.000 101.099 C 143.407 101.692,142.507 102.478,142.059 103.667 C 141.903 104.079,141.707 104.508,141.623 104.619 C 140.764 105.751,141.498 109.501,142.735 110.307 C 143.467 110.783,146.031 110.971,146.299 110.569 C 146.541 110.205,146.992 110.173,147.170 110.506 C 147.368 110.877,148.757 110.975,149.344 110.661 C 149.892 110.367,149.801 109.167,149.230 109.167 L 148.794 109.167 148.914 107.542 C 148.980 106.648,149.091 105.842,149.162 105.750 C 149.232 105.658,149.338 104.983,149.398 104.250 C 149.458 103.517,149.551 102.598,149.606 102.208 C 149.694 101.575,149.669 101.500,149.366 101.500 C 149.180 101.500,148.999 101.412,148.963 101.305 C 148.895 101.100,145.474 100.922,145.000 101.099 M178.167 101.113 C 177.938 101.161,177.713 101.251,177.667 101.313 C 177.621 101.375,177.281 101.559,176.912 101.722 C 176.234 102.020,175.167 103.319,175.167 103.845 C 175.167 103.985,175.092 104.175,175.001 104.266 C 174.340 104.927,174.469 108.418,175.197 109.537 C 175.923 110.654,178.771 111.296,179.549 110.518 C 179.809 110.258,180.146 110.289,180.458 110.601 C 180.799 110.942,182.611 110.856,182.844 110.488 C 183.219 109.896,183.029 109.167,182.500 109.167 C 182.131 109.167,182.003 109.090,182.010 108.875 C 182.024 108.452,182.463 104.920,182.648 103.750 C 182.929 101.966,182.888 101.612,182.374 101.357 C 181.904 101.125,178.932 100.952,178.167 101.113 M210.708 101.108 C 210.502 101.153,210.333 101.260,210.333 101.345 C 210.333 101.430,210.236 101.500,210.117 101.500 C 209.380 101.500,208.176 102.732,207.820 103.849 C 207.721 104.161,207.552 104.597,207.445 104.817 C 207.205 105.310,207.182 108.797,207.417 108.964 C 207.509 109.030,207.691 109.291,207.821 109.544 C 208.349 110.567,211.625 111.315,212.155 110.533 C 212.379 110.201,212.833 110.187,213.003 110.506 C 213.184 110.845,214.268 110.958,215.125 110.728 C 215.733 110.565,215.682 109.167,215.068 109.167 L 214.636 109.167 214.754 107.542 C 214.819 106.648,214.930 105.842,215.000 105.750 C 215.070 105.658,215.176 104.983,215.237 104.250 C 215.298 103.517,215.390 102.598,215.443 102.208 C 215.528 101.576,215.501 101.500,215.199 101.500 C 215.013 101.500,214.832 101.412,214.796 101.305 C 214.729 101.104,211.449 100.945,210.708 101.108 M249.958 101.111 C 249.706 101.154,249.500 101.251,249.500 101.326 C 249.500 101.402,249.302 101.514,249.060 101.574 C 247.836 101.881,246.413 104.168,246.232 106.117 C 245.886 109.841,248.107 111.568,251.931 110.548 L 253.000 110.264 253.000 109.465 C 253.000 108.630,252.552 108.348,252.040 108.860 C 251.117 109.783,248.320 108.787,248.126 107.466 L 248.058 107.000 249.187 107.000 C 252.347 107.000,254.015 105.755,253.988 103.417 C 253.965 101.380,252.688 100.650,249.958 101.111 M283.125 101.115 C 282.965 101.157,282.833 101.252,282.833 101.326 C 282.833 101.400,282.683 101.500,282.500 101.548 C 282.283 101.605,282.167 101.553,282.167 101.401 C 282.167 101.231,281.940 101.167,281.345 101.167 C 280.378 101.167,280.403 101.120,280.239 103.250 C 280.175 104.075,280.072 104.787,280.008 104.833 C 279.867 104.935,279.327 110.354,279.439 110.537 C 279.484 110.608,279.882 110.667,280.325 110.667 C 281.271 110.667,281.250 110.710,281.427 108.371 C 281.491 107.521,281.603 106.789,281.675 106.745 C 281.748 106.700,281.860 105.917,281.925 105.004 C 282.068 102.986,282.245 102.792,283.937 102.802 C 285.131 102.809,285.131 102.810,285.274 101.764 L 285.379 101.000 284.398 101.019 C 283.858 101.030,283.285 101.073,283.125 101.115 M292.583 101.135 C 290.714 101.819,289.900 102.744,289.362 104.796 C 288.987 106.225,288.867 108.500,289.167 108.500 C 289.258 108.500,289.333 108.620,289.333 108.766 C 289.333 109.217,289.830 109.902,290.471 110.336 C 291.134 110.784,293.708 110.956,293.966 110.569 C 294.201 110.216,294.636 110.190,294.927 110.511 C 295.265 110.885,296.797 110.970,297.133 110.633 C 297.540 110.226,297.384 109.167,296.917 109.167 C 296.480 109.167,296.263 107.489,296.646 107.075 C 296.727 106.988,296.881 105.942,296.990 104.750 C 297.098 103.558,297.228 102.340,297.279 102.042 C 297.356 101.588,297.319 101.500,297.052 101.500 C 296.877 101.500,296.646 101.413,296.540 101.306 C 296.318 101.084,293.102 100.945,292.583 101.135 M331.543 101.382 C 331.062 101.594,330.516 101.933,330.328 102.134 C 330.140 102.335,329.934 102.500,329.869 102.501 C 329.759 102.502,329.428 103.000,328.880 103.988 C 328.756 104.211,328.609 104.832,328.553 105.369 C 328.497 105.905,328.387 106.383,328.309 106.432 C 328.123 106.547,328.125 107.288,328.311 107.403 C 328.391 107.452,328.494 107.830,328.540 108.244 C 328.734 109.962,329.868 110.741,332.183 110.746 C 333.062 110.748,333.962 110.663,334.183 110.557 C 334.403 110.451,334.719 110.320,334.885 110.267 C 335.446 110.086,335.207 108.764,334.601 108.695 C 334.333 108.664,334.061 108.735,333.987 108.855 C 333.899 108.997,333.443 109.072,332.632 109.076 C 331.183 109.085,330.562 108.680,330.390 107.616 L 330.290 107.000 331.531 107.000 C 334.754 107.000,336.792 105.066,336.151 102.616 C 335.750 101.084,333.552 100.495,331.543 101.382 M351.292 101.115 C 351.131 101.157,351.000 101.252,351.000 101.326 C 351.000 101.400,350.850 101.500,350.667 101.548 C 350.450 101.605,350.333 101.553,350.333 101.401 C 350.333 101.232,350.108 101.167,349.521 101.167 C 348.619 101.167,348.500 101.363,348.500 102.856 C 348.500 103.213,348.429 103.635,348.343 103.794 C 348.192 104.073,347.665 109.006,347.666 110.134 L 347.667 110.684 348.542 110.634 L 349.417 110.583 349.667 108.054 C 349.804 106.663,349.973 105.469,350.042 105.401 C 350.110 105.333,350.167 105.037,350.167 104.743 C 350.167 103.174,350.512 102.818,352.045 102.811 C 353.229 102.805,353.486 102.595,353.495 101.625 L 353.500 101.000 352.542 101.019 C 352.015 101.030,351.452 101.073,351.292 101.115 M360.833 101.099 C 359.304 101.668,357.983 102.926,357.745 104.039 C 357.681 104.338,357.547 104.684,357.447 104.808 C 357.057 105.291,357.209 108.348,357.667 109.219 C 358.390 110.597,361.304 111.429,362.215 110.518 C 362.471 110.262,362.811 110.287,363.107 110.583 C 363.360 110.837,364.717 110.931,365.236 110.732 C 365.741 110.539,365.594 109.167,365.068 109.167 L 364.637 109.167 364.745 107.708 C 364.805 106.906,364.920 106.100,364.999 105.917 C 365.119 105.641,365.502 102.428,365.500 101.708 C 365.500 101.594,365.356 101.500,365.181 101.500 C 365.005 101.500,364.832 101.412,364.796 101.305 C 364.728 101.100,361.308 100.922,360.833 101.099 M220.927 101.708 C 220.624 103.181,220.172 107.850,220.258 108.616 C 220.471 110.515,222.844 111.487,224.897 110.516 C 225.526 110.219,225.552 110.219,225.855 110.522 C 226.249 110.915,227.598 110.946,228.130 110.574 C 228.794 110.109,228.651 109.167,227.917 109.167 C 227.293 109.167,227.146 108.831,227.495 108.206 C 227.668 107.898,228.316 101.372,228.187 101.243 C 228.145 101.201,227.724 101.167,227.251 101.167 L 226.391 101.167 226.167 103.750 C 226.043 105.171,225.891 106.333,225.827 106.333 C 225.764 106.333,225.673 106.829,225.624 107.435 C 225.512 108.823,225.305 109.040,223.999 109.134 C 222.945 109.211,222.537 109.025,222.142 108.287 C 221.965 107.957,222.255 104.162,222.501 103.583 C 222.579 103.400,222.689 102.781,222.746 102.208 L 222.850 101.167 221.944 101.167 C 221.056 101.167,221.036 101.177,220.927 101.708 M313.378 101.880 C 313.273 102.273,313.064 103.904,312.913 105.505 C 312.762 107.107,312.564 108.571,312.475 108.760 C 312.385 108.949,312.335 109.436,312.364 109.843 L 312.417 110.583 313.148 110.636 C 314.186 110.710,314.196 110.687,314.612 106.957 C 314.819 105.102,315.060 103.097,315.147 102.504 C 315.342 101.181,315.333 101.167,314.358 101.167 C 313.570 101.167,313.569 101.167,313.378 101.880 M341.276 101.708 C 341.225 102.006,341.131 102.888,341.068 103.667 C 341.005 104.446,340.901 105.121,340.836 105.167 C 340.574 105.351,340.224 110.486,340.466 110.579 C 341.800 111.091,342.100 110.736,342.259 108.458 C 342.322 107.565,342.427 106.833,342.492 106.833 C 342.558 106.833,342.612 106.740,342.614 106.625 C 342.620 106.239,343.011 102.255,343.097 101.708 L 343.182 101.167 342.276 101.167 C 341.385 101.167,341.369 101.175,341.276 101.708 M106.443 102.919 C 107.466 103.589,107.099 107.977,105.979 108.467 C 105.916 108.495,105.696 108.664,105.490 108.842 C 105.117 109.166,104.286 109.261,103.553 109.065 C 102.281 108.723,102.403 104.569,103.723 103.279 C 104.542 102.478,105.564 102.342,106.443 102.919 M167.725 102.831 C 167.893 102.992,167.683 106.167,167.504 106.167 C 167.437 106.167,167.330 106.778,167.268 107.526 C 167.125 109.236,167.184 109.167,165.891 109.167 C 164.378 109.167,163.606 108.665,163.454 107.583 C 163.428 107.400,163.344 107.150,163.268 107.027 C 163.187 106.898,163.207 106.726,163.315 106.619 C 163.417 106.517,163.500 106.237,163.500 105.997 C 163.500 104.608,164.489 102.995,165.533 102.682 C 166.115 102.508,167.486 102.601,167.725 102.831 M239.391 102.786 C 239.556 102.888,239.356 105.782,239.158 106.160 C 239.084 106.301,238.962 107.017,238.887 107.750 L 238.750 109.083 237.667 109.137 C 236.117 109.213,235.278 108.702,235.121 107.583 C 235.095 107.400,235.006 107.142,234.924 107.010 C 234.827 106.855,234.844 106.747,234.970 106.704 C 235.078 106.668,235.167 106.396,235.167 106.100 C 235.167 103.614,237.616 101.693,239.391 102.786 M62.114 103.625 C 62.059 104.152,61.963 105.202,61.900 105.958 C 61.837 106.715,61.721 107.333,61.643 107.333 C 61.564 107.333,61.500 107.624,61.500 107.980 C 61.500 109.211,59.526 109.670,58.508 108.675 L 57.962 108.141 58.038 106.529 C 58.120 104.785,58.644 103.469,59.343 103.247 C 59.521 103.190,59.667 103.080,59.667 103.001 C 59.667 102.797,60.107 102.708,61.232 102.686 L 62.214 102.667 62.114 103.625 M84.612 103.542 C 84.556 104.023,84.460 105.035,84.398 105.792 C 84.336 106.548,84.221 107.167,84.143 107.167 C 84.064 107.167,84.000 107.472,84.000 107.845 C 84.000 109.762,80.924 109.646,80.491 107.712 C 80.296 106.839,80.565 104.745,80.918 104.392 C 81.055 104.255,81.167 104.042,81.167 103.919 C 81.167 103.353,82.521 102.667,83.639 102.667 L 84.713 102.667 84.612 103.542 M147.636 103.292 C 147.664 103.590,147.620 103.833,147.538 103.833 C 147.455 103.833,147.291 104.917,147.173 106.241 L 146.959 108.648 146.412 108.907 C 145.848 109.176,144.550 109.254,144.240 109.039 C 143.898 108.802,143.500 108.088,143.500 107.713 C 143.500 107.504,143.416 107.333,143.314 107.333 C 143.197 107.333,143.171 107.193,143.244 106.958 C 143.309 106.752,143.431 106.171,143.517 105.667 C 143.895 103.446,144.718 102.654,146.583 102.716 C 147.582 102.750,147.583 102.751,147.636 103.292 M180.754 103.042 C 180.708 103.248,180.557 104.576,180.420 105.992 C 180.144 108.839,180.083 108.976,179.033 109.117 C 177.247 109.356,176.500 108.615,176.500 106.602 C 176.500 105.996,176.559 105.500,176.632 105.500 C 176.705 105.500,176.856 105.158,176.968 104.740 C 177.350 103.310,178.186 102.720,179.878 102.686 C 180.793 102.668,180.836 102.685,180.754 103.042 M213.439 103.292 C 213.386 103.635,213.217 104.964,213.065 106.243 C 212.761 108.786,212.688 108.939,211.691 109.099 C 210.247 109.330,209.333 108.752,209.333 107.609 C 209.333 107.377,209.255 107.138,209.159 107.078 C 209.051 107.012,209.042 106.896,209.136 106.777 C 209.219 106.670,209.337 106.146,209.397 105.611 C 209.616 103.656,210.646 102.667,212.459 102.667 L 213.535 102.667 213.439 103.292 M251.769 102.794 C 252.636 103.366,251.613 105.333,250.448 105.333 C 250.293 105.333,250.167 105.408,250.167 105.500 C 250.167 105.719,248.717 105.716,248.581 105.497 C 247.917 104.422,250.682 102.078,251.769 102.794 M295.190 103.917 C 295.157 104.558,295.068 105.200,294.993 105.343 C 294.918 105.486,294.802 106.272,294.735 107.089 C 294.590 108.875,294.479 109.013,293.101 109.124 C 291.366 109.263,290.725 108.111,291.168 105.651 C 291.553 103.519,292.455 102.660,294.250 102.718 L 295.250 102.750 295.190 103.917 M334.029 102.942 C 334.339 103.224,334.454 104.000,334.185 104.000 C 334.103 104.000,333.990 104.182,333.935 104.405 C 333.837 104.792,333.035 105.333,332.558 105.333 C 332.434 105.333,332.333 105.408,332.333 105.500 C 332.333 105.782,330.717 105.704,330.606 105.417 C 330.103 104.106,333.000 102.012,334.029 102.942 M363.384 103.417 C 363.366 103.783,363.239 104.946,363.101 106.000 C 362.963 107.054,362.846 108.077,362.841 108.273 C 362.818 109.318,360.196 109.493,359.603 108.489 C 358.268 106.229,360.036 102.593,362.417 102.703 L 363.417 102.750 363.384 103.417 M271.350 105.024 C 272.303 105.344,273.309 107.333,272.518 107.333 C 272.436 107.333,272.322 107.521,272.265 107.750 C 272.038 108.655,270.070 109.373,268.582 109.094 L 267.966 108.979 268.083 107.448 C 268.148 106.606,268.268 105.845,268.350 105.758 C 268.433 105.671,268.500 105.428,268.500 105.217 C 268.500 104.771,270.248 104.653,271.350 105.024 " stroke="none" fill="#04549c" fill-rule="evenodd"></path><path id="path3" d="M59.750 48.333 L 54.250 48.424 59.792 48.462 C 63.400 48.487,65.333 48.442,65.333 48.333 C 65.333 48.242,65.315 48.184,65.292 48.205 C 65.269 48.226,62.775 48.284,59.750 48.333 M53.166 51.784 C 53.121 52.994,53.142 53.926,53.214 53.854 C 53.285 53.782,53.323 52.791,53.296 51.653 L 53.249 49.583 53.166 51.784 M30.461 57.454 C 30.761 57.491,31.211 57.490,31.461 57.452 C 31.712 57.414,31.467 57.384,30.917 57.385 C 30.367 57.386,30.162 57.417,30.461 57.454 M23.852 58.180 C 23.450 58.259,23.075 58.370,23.019 58.427 C 22.917 58.530,23.734 58.412,24.833 58.165 C 25.658 57.979,24.806 57.993,23.852 58.180 M20.167 59.000 C 19.837 59.106,19.819 59.133,20.083 59.133 C 20.267 59.133,20.604 59.073,20.833 59.000 C 21.163 58.894,21.181 58.867,20.917 58.867 C 20.733 58.867,20.396 58.927,20.167 59.000 M14.417 60.756 C 14.000 60.957,13.986 60.980,14.333 60.895 C 14.806 60.779,15.336 60.509,15.083 60.513 C 14.992 60.514,14.692 60.623,14.417 60.756 M48.429 70.167 C 48.490 70.396,48.610 70.696,48.695 70.833 C 48.802 71.007,48.815 70.956,48.738 70.667 C 48.676 70.438,48.557 70.137,48.472 70.000 C 48.365 69.826,48.351 69.877,48.429 70.167 M49.441 73.250 C 49.497 73.617,49.607 74.029,49.685 74.167 C 49.857 74.469,49.681 73.404,49.478 72.917 C 49.390 72.706,49.376 72.830,49.441 73.250 M50.237 80.667 C 50.237 82.637,50.262 83.444,50.291 82.458 C 50.321 81.473,50.321 79.860,50.291 78.875 C 50.262 77.890,50.237 78.696,50.237 80.667 " stroke="none" fill="#84845c" fill-rule="evenodd"></path><path id="path4" d="M66.052 36.458 C 65.877 36.619,65.843 36.675,65.975 36.583 C 66.108 36.492,67.049 36.374,68.066 36.323 L 69.917 36.228 68.143 36.198 C 66.658 36.172,66.319 36.214,66.052 36.458 M65.437 37.256 C 65.380 37.405,65.350 40.015,65.371 43.055 L 65.408 48.583 65.496 42.833 C 65.590 36.661,65.592 36.854,65.437 37.256 M25.750 58.000 C 25.057 58.176,25.739 58.184,26.583 58.010 C 27.144 57.894,27.170 57.872,26.750 57.872 C 26.475 57.873,26.025 57.930,25.750 58.000 M18.083 59.667 C 17.873 59.757,17.842 59.810,18.000 59.810 C 18.137 59.810,18.400 59.745,18.583 59.667 C 18.793 59.576,18.824 59.523,18.667 59.523 C 18.529 59.523,18.267 59.588,18.083 59.667 M48.758 71.375 C 48.820 71.581,48.939 71.823,49.023 71.913 C 49.107 72.002,49.091 71.834,48.988 71.538 C 48.777 70.932,48.582 70.795,48.758 71.375 " stroke="none" fill="#346488" fill-rule="evenodd"></path></g></svg>